<svg width="723" height="305" viewBox="0 0 723 305" fill="none" xmlns="http://www.w3.org/2000/svg">
<path d="M479.005 257.9V257.345H477.653H476.301V196.764V136.183H512.759H549.217V136.738V137.293H550.626H552.035L552.009 150.191L551.982 163.09L531.555 163.116L511.129 163.142V172.906V182.669H528.879H546.629V183.224V183.779H548.038H549.447L549.421 196.178L549.394 208.577L530.264 208.604L511.133 208.63V220.057V231.485L530.94 231.511L550.747 231.537L550.779 232.061L550.811 232.585L552.185 232.616L553.56 232.648L553.586 245.546L553.613 258.445H516.309H479.005L479.005 257.9Z" fill="#F58C1C"/>
<path d="M703.578 133.413L683.404 133.439L663.23 133.465L652.607 194.823C646.764 228.57 641.952 256.344 641.915 256.542L641.846 256.902H643.654C645.736 256.902 645.558 256.758 645.294 258.235C645.201 258.754 645.126 259.265 645.126 259.372L645.123 259.375C645.123 259.563 645.766 259.569 657.491 259.543L669.856 259.517L672.228 244.428L674.6 229.337L681.107 229.306C687.25 229.28 687.611 229.29 687.611 229.474C687.61 229.755 690.54 256.359 690.605 256.657C690.658 256.901 690.696 256.909 692.104 256.909H693.551L693.692 258.239L693.835 259.572H708.418C721.347 259.572 723.001 259.551 723.001 259.404C723.001 259.214 706.923 136.994 706.825 136.438L706.761 136.078H705.364C703.75 136.078 703.927 136.244 703.718 134.553L703.578 133.413ZM681.613 170.036C681.645 170.2 685.132 207.593 685.132 207.76C685.132 207.817 683.581 207.86 681.569 207.86H678.008L678.069 207.5C678.101 207.302 678.908 198.756 679.858 188.511C680.807 178.266 681.597 169.952 681.613 170.036L681.613 170.036Z" fill="#F58C1C"/>
<path d="M591.817 258.233V256.902H590.24H588.662V234.234V211.567L576.261 172.738C569.441 151.382 563.832 133.796 563.796 133.659L563.731 133.409H578.048C591.587 133.409 592.369 133.42 592.422 133.603C592.454 133.71 592.591 134.309 592.73 134.935L592.982 136.072H594.291H595.601L600.105 156.596C602.731 168.565 604.642 177.039 604.688 176.928C604.731 176.823 606.878 167.1 609.458 155.323C612.038 143.545 614.176 133.796 614.209 133.659L614.269 133.409H628.57C639.936 133.409 642.87 133.435 642.869 133.548C642.867 133.624 642.694 134.224 642.484 134.88L642.102 136.072H644.132C645.724 136.072 646.151 136.104 646.108 136.213C646.076 136.29 640.468 153.845 633.643 175.224L621.232 214.095V236.83V259.565H606.525H591.817V258.233Z" fill="#F58C1C"/>
<path d="M429.168 258.259L429.136 256.955L427.53 256.924L425.924 256.892V212.957V133.44H440.631H455.338V134.716V135.992H456.916H458.494V215.568V259.561H443.847H429.199L429.168 258.259Z" fill="#F58C1C"/>
<path d="M333.849 133.391V195.145V256.901H335.425H337.005V258.231V259.567H351.711H366.421V231.373V203.179L369.546 203.226C372.321 203.268 372.774 203.302 373.55 203.516C375.123 203.951 375.583 204.209 376.084 204.936C377.14 206.469 377.779 208.074 378.274 210.432C378.358 210.834 378.421 216.131 378.475 227.053C378.542 241.15 378.575 243.278 378.744 244.677C379.308 249.346 380.443 253.15 382.09 255.889L382.698 256.9H383.556H384.417L384.783 257.593C384.985 257.975 385.325 258.575 385.54 258.926L385.933 259.562H400.687C408.802 259.562 415.443 259.541 415.443 259.51C415.443 259.479 415.258 259.169 415.033 258.822C413.389 256.293 412.01 252.046 411.445 247.767C411.108 245.216 411.052 242.392 411.049 228.163C411.047 219.39 411.001 213.296 410.93 212.517C410.27 205.145 407.929 200.234 403.606 197.155C403.266 196.913 402.559 196.32 402.032 195.838C400.233 194.194 398.042 192.957 395.443 192.116L394.13 191.691L395.123 191.329C398.528 190.08 401.291 188.391 403.647 186.122C407.875 182.052 410.167 176.719 410.895 169.246C411.034 167.822 411.058 166.626 411.01 163.864C410.947 160.128 410.82 158.729 410.314 156.176C409.119 150.139 406.5 145.674 402.371 142.634C401.906 142.292 401.155 141.676 400.703 141.266C396.05 137.048 389.22 134.782 378.535 133.912C373.733 133.521 372.133 133.493 353.034 133.441L333.849 133.391ZM366.418 153.789L368.418 153.854C372.632 153.99 375.902 154.761 376.609 155.782C377.271 156.739 377.891 158.766 378.216 161.035C378.47 162.81 378.509 170.488 378.274 172.353C377.486 178.594 375.171 181.248 369.574 182.332C368.923 182.458 367.948 182.602 367.406 182.649L366.418 182.739V168.265L366.418 153.789Z" fill="#F58C1C"/>
<path d="M282.794 261.926C273.036 261.463 264.949 258.672 259.52 253.891C259.147 253.563 258.234 252.813 257.491 252.226C252.853 248.559 249.702 243.828 247.821 237.705C247.102 235.366 246.557 232.634 246.197 229.577C246.011 227.997 245.998 225.734 245.998 195.265C245.998 160.697 245.976 162.082 246.518 158.483C247.227 153.76 248.702 149.349 250.729 145.89C255.395 137.928 263.177 133.183 274.198 131.579C278.904 130.894 285.427 130.81 291.078 131.363C299.882 132.224 306.444 134.64 311.067 138.721C311.523 139.124 312.298 139.759 312.788 140.132C318.287 144.315 321.577 150.365 322.796 158.539C323.257 161.628 323.284 162.273 323.334 171.271L323.382 180.119H308.666H293.95V178.843V177.567H292.378H290.807L290.764 167.886C290.716 157.483 290.722 157.552 290.114 155.738C289.666 154.397 289.388 153.957 288.909 153.832C287.824 153.549 287.379 153.495 286.109 153.493C282.06 153.487 279.886 155.27 278.815 159.481L278.575 160.425L278.537 197.095C278.511 221.755 278.539 234.093 278.617 234.766C278.772 236.105 279.11 237.37 279.567 238.32C279.912 239.038 279.983 239.114 280.417 239.242C282.498 239.856 285.488 239.515 287.267 238.461C289.135 237.355 290.364 234.951 290.674 231.797C290.736 231.171 290.821 225.753 290.864 219.758L290.942 208.856H305.576H320.21V210.188V211.519H321.788H323.366V220.592C323.366 229.865 323.302 231.877 322.911 234.898C321.126 248.679 313.466 257.257 300.054 260.497C295.18 261.675 288.738 262.208 282.794 261.926V261.926Z" fill="#F58C1C"/>
<g filter="url(#filter0_d_984_4)">
<path d="M231.225 90.3063C230.546 90.3161 229.865 90.3863 229.392 90.5135C226.543 91.281 224.134 93.515 222.159 97.2251L221.668 98.1491L221.209 98.1936C220.956 98.2176 219.739 98.3022 218.506 98.3839C210.119 98.9381 201.838 100.538 193.704 103.172L191.853 103.773L191.69 104.39C190.503 108.838 188.578 111.3 185.617 112.152C184.985 112.334 184.682 112.362 183.37 112.36C181.654 112.357 180.854 112.237 178.991 111.701C177.927 111.395 177.701 111.358 176.793 111.367C175.973 111.374 175.577 111.431 174.697 111.663C171.806 112.427 167.398 114.582 162.171 117.785C160.07 119.073 154.638 122.699 152.103 124.504C148.169 127.308 143.105 131.16 139.782 133.876C137.062 136.099 134.227 138.619 133.809 139.185L133.6 139.466L134 139.403C134.842 139.27 137.447 138.602 140.055 137.851C145.063 136.41 146.009 136.261 154.309 135.583C158.132 135.27 160.324 134.93 163.229 134.206C167 133.266 169.275 132.148 170.525 130.618C170.753 130.339 171.12 129.884 171.342 129.606C172.416 128.262 173.516 127.888 177.806 127.405C180.413 127.112 181.727 126.843 183.415 126.265C186.958 125.051 189.947 123.304 192.609 120.895C194.817 118.897 196.811 116.253 198.29 113.36C199.087 111.8 199.57 110.647 200.382 108.365C201.05 106.487 201.189 106.192 201.594 105.786C202.172 105.209 202.908 104.975 206.576 104.216C211.58 103.181 212.966 103.031 218.001 102.968L221.965 102.919L222.628 103.891C224.551 106.715 226.63 108.38 229.208 109.158C229.945 109.381 230.183 109.408 231.371 109.407C232.449 109.406 232.843 109.367 233.438 109.206C236.263 108.439 238.598 106.313 239.798 103.415C240.872 100.82 240.767 97.9984 239.507 95.6075C238.149 93.0331 235.757 91.1265 233.048 90.4613C232.583 90.3469 231.904 90.2969 231.225 90.3063ZM231.038 95.5461C232.166 95.5463 233.248 95.9947 234.046 96.7925C234.843 97.5903 235.292 98.6722 235.292 99.8005C235.292 100.359 235.182 100.913 234.969 101.429C234.755 101.946 234.442 102.415 234.047 102.811C233.652 103.206 233.182 103.52 232.666 103.734C232.15 103.948 231.596 104.058 231.038 104.058C230.478 104.058 229.925 103.948 229.408 103.734C228.892 103.52 228.423 103.206 228.027 102.811C227.632 102.416 227.319 101.946 227.105 101.43C226.891 100.913 226.781 100.36 226.782 99.8005C226.782 98.672 227.23 97.5898 228.028 96.7919C228.827 95.9941 229.909 95.5459 231.038 95.5461Z" fill="#22B27F"/>
</g>
<g filter="url(#filter1_d_984_4)">
<path d="M236.557 60.0866C236.075 60.0937 235.615 60.1373 235.193 60.217C233.436 60.5493 231.888 61.3479 230.542 62.6174C229.798 63.3199 229.473 63.8113 229.288 64.5098C229.22 64.7697 229.072 65.0797 228.958 65.2005C228.735 65.4379 227.989 65.6863 226.807 65.9157C225.088 66.248 224.458 66.283 220.279 66.2656C215.835 66.246 212.263 66.3514 209.612 66.5772C198.416 67.5306 185.456 71.0434 173.29 76.4198C168.603 78.4911 162.43 81.8082 160.43 83.3325C159.683 83.9018 159.395 84.3426 159.072 85.4152C157.73 89.8671 156.75 91.4971 154.825 92.4691C154.027 92.8721 153.101 93.0762 151.57 93.1874C146.061 93.587 145.745 93.6936 142.95 96.1219C139.73 98.9202 132.884 106.196 128.186 111.812C123.325 117.622 115.688 129.121 110.324 138.708C105.977 146.477 102.74 153.695 101.646 158.06L101.485 158.7L103.317 160.471C104.325 161.445 105.194 162.245 105.248 162.247C105.386 162.252 106.612 160.969 107.286 160.115C108.17 158.997 109.337 157.359 111.304 154.479C113.438 151.357 113.822 150.84 116.062 148.076C120.152 143.03 122.183 140.766 125.989 137.007C131.732 131.335 136.849 126.88 144.691 120.728C150.505 116.166 155.624 112.899 163.288 108.858C169.641 105.508 171.895 104.248 172.412 103.764C172.594 103.593 172.806 103.097 173.232 101.833C174.197 98.9671 175.023 97.4718 176.323 96.237C177.876 94.7615 179.659 94.1098 182.138 94.1098C184.081 94.1098 185.996 94.4962 187.036 95.0967C187.263 95.2282 187.803 95.6931 188.233 96.1326C188.931 96.846 189.068 96.9464 189.513 97.052C190.759 97.348 193.538 96.8932 198.324 95.6123C199.345 95.3391 199.909 95.1459 199.909 95.069C199.909 94.7312 199.215 91.6379 198.861 90.4063C197.892 87.028 196.532 84.3692 194.475 81.833C192.441 79.3259 191.749 78.4385 191.215 77.6538L190.624 76.7851L194.186 75.8381C205.433 72.8465 209.181 72.1333 215.636 71.7571C217.493 71.649 224.29 71.6916 226.467 71.8246L227.416 71.883L228.599 73.6388C229.25 74.6054 230.03 75.6866 230.332 76.0407C231.389 77.2784 232.598 78.0858 234.072 78.5363C234.857 78.7769 234.998 78.7883 236.784 78.7926C238.475 78.7973 238.755 78.7788 239.481 78.5869C242.253 77.8537 244.202 76.2583 245.385 73.76C246.843 70.6829 246.584 66.8791 244.725 64.0694C243.864 62.7678 242.366 61.5198 240.924 60.9061C239.639 60.359 238.005 60.0649 236.557 60.0866ZM236.827 65.3263C237.386 65.3265 237.94 65.4367 238.456 65.6508C238.972 65.8648 239.441 66.1785 239.836 66.5738C240.231 66.9692 240.545 67.4385 240.758 67.955C240.972 68.4714 241.082 69.0249 241.082 69.5838C241.081 70.7121 240.633 71.7941 239.835 72.5919C239.037 73.3897 237.955 73.838 236.827 73.8383C236.268 73.8386 235.715 73.7287 235.198 73.515C234.682 73.3014 234.213 72.988 233.817 72.593C233.422 72.1979 233.108 71.7288 232.894 71.2125C232.68 70.6962 232.57 70.1428 232.57 69.5838C232.569 69.0247 232.679 68.4709 232.893 67.9543C233.107 67.4376 233.421 66.9681 233.816 66.5727C234.212 66.1773 234.681 65.8637 235.198 65.6499C235.714 65.436 236.268 65.3261 236.827 65.3263Z" fill="#4C2B84"/>
</g>
<g filter="url(#filter2_d_984_4)">
<path d="M220.415 28.8799C218.671 28.8799 218.463 28.8993 217.635 29.1224C216.385 29.4587 215.403 29.9927 214.531 30.8137C213.739 31.5582 213.153 32.3806 211.875 34.5248C210.595 36.6762 211.005 36.4208 208.362 36.6889C194.128 38.1319 182.254 40.8796 171.446 45.2331C159.67 49.9767 149.036 56.6394 137.699 66.3748C134.473 69.1451 129.999 73.2748 126.977 76.2727C125.755 77.4843 125.491 77.7973 125.212 78.3631C124.639 79.5267 124.612 79.9678 124.836 84.0878C124.961 86.3866 124.371 88.0129 122.815 89.6668C121.902 90.6368 121.096 91.2465 120.044 91.7679C118.672 92.4482 117.589 92.6397 115.105 92.6397H113.563L113.234 93.2935C112.798 94.1596 111.36 96.6521 108.968 100.687C102.469 111.645 100.491 115.574 96.7784 124.916C96.105 126.611 95.0372 129.384 94.4056 131.078C92.9709 134.927 90.4073 141.933 90.3691 142.107C90.3465 142.211 90.8848 142.319 92.9552 142.634C94.3935 142.852 95.6007 143.063 95.638 143.102C95.6753 143.141 96.028 143.73 96.4192 144.413C97.1894 145.757 97.7189 146.52 98.1535 146.918C98.3057 147.057 98.4367 147.171 98.4467 147.171C98.4568 147.171 98.8336 146.622 99.2847 145.952C100.871 143.596 101.977 141.674 105.009 135.997C111.537 123.781 115.589 117.242 122.282 108.135C126.461 102.448 129.121 99.2232 134.53 93.2751C137.169 90.3721 139.407 87.8723 139.504 87.7207C139.772 87.2983 140.079 86.2404 140.498 84.2919C140.708 83.3168 140.985 82.159 141.112 81.7181C142.201 77.9607 144.347 75.986 147.993 75.3948C149.134 75.2096 150.213 75.2273 151.4 75.4454C153.882 75.9013 154.549 75.698 158.666 73.2384C159.829 72.5434 161.029 71.8517 161.333 71.7005C161.637 71.5493 165.236 70.2552 169.332 68.8243C173.429 67.3935 176.819 66.1867 176.864 66.1477C176.967 66.0558 176.358 64.989 175.604 63.9345C173.426 60.8908 170.358 58.353 166.35 56.2836L164.932 55.5515L165.534 54.9836C166.435 54.1303 167.631 53.3845 169.976 52.224C173.346 50.556 177.607 48.9505 183.126 47.2636C193.314 44.1493 204.705 41.8854 210.216 41.8811L211.375 41.8796L212.486 43.2424C215.232 46.6072 216.969 47.5823 220.215 47.5813C223.25 47.5803 225.498 46.7544 227.229 45.0044C229.751 42.456 230.576 38.3462 229.288 34.7336C228.276 31.8971 226.123 29.9071 223.219 29.127C222.362 28.8975 222.171 28.8799 220.415 28.8799ZM220.39 34.1227C220.949 34.1225 221.503 34.2323 222.019 34.446C222.536 34.6596 223.005 34.973 223.4 35.368C223.796 35.7631 224.109 36.2322 224.323 36.7485C224.537 37.2648 224.648 37.8182 224.648 38.3772C224.648 38.9362 224.538 39.4898 224.324 40.0063C224.11 40.5228 223.796 40.992 223.401 41.3873C223.006 41.7825 222.536 42.096 222.02 42.3097C221.503 42.5235 220.949 42.6334 220.39 42.6331C219.262 42.6329 218.18 42.1843 217.382 41.3862C216.584 40.5881 216.136 39.5057 216.136 38.3772C216.136 37.2489 216.585 36.1669 217.382 35.3691C218.18 34.5713 219.262 34.123 220.39 34.1227Z" fill="#892985"/>
</g>
<g filter="url(#filter3_d_984_4)">
<path d="M182.799 4.00481C182.461 4.01451 182.163 4.03743 181.945 4.07848C177.732 4.87549 174.946 8.31636 174.161 13.6939C174.067 14.3317 173.974 14.8709 173.952 14.8926C173.931 14.9144 173.357 15.1037 172.677 15.3131C164.282 17.8972 151.938 24.3164 142.751 30.8759C138.827 33.6782 135.184 36.6423 129.968 41.2787C117.262 52.5746 108.556 63.4881 97.5381 81.9276C94.5724 86.8909 91.9435 91.4271 91.8041 91.8224C91.5753 92.4711 91.6299 92.808 92.1372 93.8437C93.3971 96.4159 93.8865 98.1498 93.8853 100.043C93.8845 101.371 93.6845 102.259 93.1363 103.375C91.9168 105.856 89.3529 107.737 85.335 109.096L83.8278 109.608L81.1926 116.773C78.7235 123.488 78.5337 123.962 78.1813 124.338C77.6815 124.872 77.4481 125.523 77.1822 127.113C77.0605 127.841 76.7737 129.042 76.5452 129.781C75.585 132.886 75.4529 134.546 76.0372 136.209C76.8698 138.577 79.5947 140.146 84.0427 140.819C85.4638 141.034 85.4149 141.032 85.4532 140.894C85.4707 140.831 85.5931 140.22 85.7248 139.537C86.6562 134.709 89.7691 125.705 94.1032 115.306C94.9778 113.208 96.089 110.92 100.103 102.939C104.146 94.8995 105.193 92.8946 105.944 91.7411C107.149 89.8899 107.242 89.6146 107.183 88.1328C107.157 87.5006 107.065 86.4882 106.979 85.8812C106.858 85.0286 106.833 84.3796 106.868 83.0296C106.923 80.92 107.131 79.9702 107.855 78.5035C108.231 77.7425 108.465 77.4079 109.087 76.7554C110.335 75.4468 111.819 74.6961 114.014 74.2613C115.94 73.8799 116.989 73.8168 117.831 74.0281C117.988 74.0673 118.149 73.9078 118.715 73.1716C120.102 71.3681 121.914 69.4601 126.064 65.4286C133.914 57.8029 134.325 57.4851 142.888 52.4121C145.088 51.1086 146.949 49.9867 147.021 49.918C147.134 49.8117 147.051 49.7454 146.453 49.473C143.886 48.3028 141.411 47.8983 135.401 47.668C134.09 47.6181 132.999 47.5622 132.978 47.5407C132.957 47.519 133.123 47.221 133.346 46.8761C134.66 44.847 137.801 41.8207 141.875 38.6619C151.381 31.2914 166.381 22.6807 172.958 20.82C175.376 20.1356 176.262 20.2604 179.258 21.6963C182.02 23.0201 183.431 23.2516 185.629 22.7461C187.44 22.3295 188.948 21.4937 190.247 20.183C193.186 17.2179 193.834 12.7103 191.857 8.98213C190.647 6.70119 188.443 4.96395 185.878 4.26572C185.191 4.07901 183.813 3.97591 182.799 4.00481ZM183.494 9.23998C184.053 9.23991 184.607 9.35 185.123 9.56396C185.64 9.77791 186.109 10.0915 186.504 10.4869C186.899 10.8823 187.213 11.3517 187.427 11.8682C187.64 12.3848 187.75 12.9384 187.75 13.4975C187.75 14.626 187.301 15.7082 186.503 16.5061C185.705 17.3039 184.623 17.7521 183.494 17.7519C182.366 17.7516 181.284 17.3033 180.486 16.5055C179.688 15.7077 179.24 14.6257 179.24 13.4975C179.239 12.9386 179.349 12.3851 179.563 11.8686C179.776 11.3521 180.09 10.8828 180.485 10.4875C180.88 10.0921 181.349 9.77844 181.865 9.5644C182.382 9.35035 182.935 9.24011 183.494 9.23998Z" fill="#EC1C23"/>
</g>
<g filter="url(#filter4_d_984_4)">
<path d="M121.355 286.086L121.409 287.55C121.508 290.184 122.189 292.31 123.631 294.485C124.328 295.536 126.193 297.354 127.39 298.149C129.529 299.571 132.039 300.5 134.72 300.863C136.012 301.04 138.327 301.046 139.607 300.878C143.196 300.404 146.236 299.005 148.578 296.749C149.847 295.527 150.581 294.528 151.358 292.968C152.078 291.522 152.47 290.388 152.741 288.968C152.924 288.004 153.106 286.487 153.05 286.384C153.033 286.354 148.334 286.304 142.604 286.269C136.875 286.236 129.749 286.182 126.77 286.148L121.355 286.086Z" fill="#F58C1D"/>
</g>
<g filter="url(#filter5_d_984_4)">
<path d="M162.853 268.254C161.451 268.263 159.828 268.315 158.396 268.409C156.241 268.549 153.75 268.561 133.063 268.548C112.805 268.533 110.039 268.547 109.43 268.671C107.8 269.003 106.836 269.616 106.152 270.752C105.665 271.562 105.293 273.318 105.292 274.827V275.631L105.937 276.161C107.647 277.566 109.559 278.399 111.682 278.659L111.684 278.657C112.476 278.755 114.84 278.733 119.225 278.583C120.742 278.531 132.451 278.421 145.247 278.338L168.512 278.188L169.202 277.862C170.507 277.244 171.433 276.067 171.736 274.636C171.904 273.842 171.901 273.394 171.722 272.526C171.229 270.119 169.508 268.869 165.981 268.357C165.432 268.277 164.253 268.244 162.852 268.254L162.853 268.254Z" fill="#DC422E"/>
</g>
<g filter="url(#filter6_d_984_4)">
<path d="M166.587 249.474C162.78 249.467 153.569 249.528 136.232 249.676L104.689 249.945L103.991 250.28C101.661 251.396 100.32 253.102 100.325 254.943C100.327 256.146 100.727 257.017 101.739 258.032C102.368 258.662 102.63 258.849 103.448 259.249C104.429 259.728 105.459 260.043 106.503 260.178C107.335 260.286 105.547 260.295 139.882 260.005L171.49 259.738L172.159 259.386C173.431 258.719 174.44 257.412 174.718 256.07C174.874 255.32 174.787 253.918 174.546 253.295C173.721 251.165 171.642 249.819 168.693 249.505C168.524 249.488 167.856 249.476 166.587 249.474L166.587 249.474Z" fill="#982C8F"/>
</g>
<g filter="url(#filter7_d_984_4)">
<path d="M227.861 117.986C227.807 117.933 213.313 121.235 213.219 121.322C213.126 121.407 212.893 123.147 212.231 128.641C210.994 138.914 210.391 142.175 208.731 147.589C206.305 155.505 202.754 163.072 198.55 169.285C195.448 173.868 192.889 176.892 185.235 185.016C179.002 191.63 176.053 195.095 172.894 199.517C169.165 204.735 167.326 208.281 166.251 212.322C165.367 215.643 165.028 218.449 164.47 227.061C164.352 228.896 164.236 230.413 164.219 230.431C164.159 230.485 160.892 230.749 158.804 230.869C155.828 231.039 144.68 231.007 137.011 230.806C131.981 230.674 127.622 230.633 117.562 230.628C105.41 230.621 104.545 230.633 103.769 230.788C101.855 231.172 100.73 231.663 99.8199 232.514C98.0411 234.178 98.336 236.756 100.619 239.517C101.029 240.012 101.193 240.073 102.633 240.271C104.997 240.596 109.15 240.778 116.274 240.87C124.65 240.979 139.707 240.866 158.438 240.552C162.813 240.479 168.576 240.391 171.246 240.356L176.102 240.293L176.054 240.055C175.587 237.584 175.305 233.665 175.388 230.806C175.702 219.917 179.397 210.118 186.312 201.838C188.019 199.794 190.69 197.214 194.208 194.207C201.687 187.815 207.129 181.815 211.726 174.896C220.575 161.575 225.418 146.02 227.398 124.548C227.641 121.919 227.914 118.039 227.861 117.986Z" fill="#4C2B84"/>
</g>
<g filter="url(#filter8_d_984_4)">
<path d="M182.343 99.27C181.215 99.2697 180.132 99.7178 179.334 100.516C178.536 101.313 178.087 102.396 178.087 103.524C178.087 104.083 178.197 104.637 178.41 105.153C178.624 105.67 178.938 106.139 179.333 106.535C179.728 106.93 180.198 107.243 180.714 107.457C181.231 107.671 181.784 107.781 182.343 107.781C182.902 107.781 183.455 107.671 183.972 107.457C184.488 107.243 184.957 106.929 185.352 106.534C185.747 106.138 186.06 105.669 186.274 105.153C186.488 104.637 186.598 104.083 186.598 103.524C186.597 102.396 186.149 101.314 185.351 100.516C184.553 99.7186 183.471 99.2703 182.343 99.27Z" fill="#4C2B84"/>
</g>
<g filter="url(#filter9_d_984_4)">
<path d="M84.5315 95.2988C83.9726 95.2987 83.4192 95.4086 82.9029 95.6223C82.3865 95.8361 81.9173 96.1494 81.5221 96.5444C81.1268 96.9395 80.8132 97.4085 80.5992 97.9248C80.3853 98.441 80.275 98.9944 80.2749 99.5532C80.2748 100.112 80.3848 100.666 80.5986 101.182C80.8125 101.699 81.126 102.168 81.5213 102.563C81.9166 102.959 82.3859 103.272 82.9024 103.486C83.4189 103.7 83.9725 103.81 84.5315 103.81C85.6601 103.809 86.7424 103.361 87.5402 102.563C88.3381 101.764 88.7861 100.682 88.7858 99.5532C88.7855 98.425 88.3372 97.343 87.5394 96.5452C86.7416 95.7474 85.6597 95.2991 84.5315 95.2988Z" fill="#4C2B84"/>
</g>
<g filter="url(#filter10_d_984_4)">
<path d="M149.711 80.2617C149.152 80.2616 148.599 80.3716 148.082 80.5854C147.566 80.7993 147.096 81.1128 146.701 81.5081C146.306 81.9034 145.992 82.3727 145.778 82.8892C145.564 83.4057 145.454 83.9593 145.455 84.5183C145.455 85.647 145.904 86.7292 146.702 87.5271C147.5 88.3249 148.583 88.773 149.711 88.7727C150.839 88.7724 151.921 88.324 152.719 87.5263C153.517 86.7285 153.965 85.6466 153.966 84.5183C153.966 83.9595 153.856 83.4061 153.642 82.8897C153.428 82.3734 153.115 81.9042 152.72 81.5089C152.325 81.1137 151.856 80.8001 151.34 80.5861C150.823 80.3721 150.27 80.2619 149.711 80.2617Z" fill="#4C2B84"/>
</g>
<g filter="url(#filter11_d_984_4)">
<path d="M115.603 79.1279C114.474 79.1276 113.391 79.5757 112.593 80.3735C111.795 81.1714 111.346 82.2536 111.346 83.3822C111.346 83.9413 111.456 84.4948 111.67 85.0113C111.884 85.5278 112.197 85.9971 112.592 86.3924C112.988 86.7877 113.457 87.1013 113.973 87.3151C114.49 87.529 115.044 87.639 115.603 87.6388C116.161 87.6387 116.715 87.5285 117.231 87.3145C117.747 87.1005 118.216 86.7869 118.611 86.3916C119.006 85.9964 119.32 85.5272 119.533 85.0108C119.747 84.4945 119.857 83.9411 119.857 83.3822C119.857 82.254 119.408 81.1721 118.61 80.3743C117.813 79.5765 116.731 79.1282 115.603 79.1279Z" fill="#4C2B84"/>
</g>
<g filter="url(#filter12_d_984_4)">
<path d="M112.191 47.8126C111.784 47.7755 110.07 48.0401 108.693 48.3671C105.071 49.227 100.716 51.2283 96.6462 53.9011C90.4234 57.9883 86.6984 61.8854 82.6462 68.5477C81.0534 71.1664 80.0913 72.2345 77.9518 73.7539C73.898 76.6328 71.3795 78.7361 68.6439 81.5263C66.9118 83.2928 65.8126 84.5771 64.6724 86.169C62.2057 89.6128 60.7268 92.938 60.0364 96.5949C59.8408 97.631 59.8202 97.9895 59.8254 100.227C59.8307 102.527 59.8483 102.802 60.0746 103.959C60.5834 106.559 61.3822 108.833 62.6699 111.354C63.8702 113.704 65.1568 115.701 67.4944 118.848C68.152 119.733 69.0219 120.948 69.4274 121.549L70.1638 122.64V123.304C70.1638 123.669 70.1905 123.992 70.2244 124.027C70.2582 124.059 70.2898 124.087 70.294 124.085C70.2982 124.083 70.6275 123.987 71.0259 123.87L71.751 123.657L72.1462 122.696C72.3861 122.114 72.634 121.284 72.7748 120.59C73.1144 118.917 73.6108 117.232 74.9951 113.044C77.119 106.62 77.2386 105.762 76.2837 103.813C75.6025 102.422 75.482 101.865 75.4306 99.8591C75.3482 96.6421 75.854 94.972 77.3816 93.4226C78.3719 92.4182 79.3871 91.8128 82.1613 90.5737C83.0198 90.1902 83.8415 89.764 83.9865 89.6263C84.3215 89.3082 84.407 89.1397 85.4143 86.7863C88.0039 80.7362 92.5518 72.3632 96.0715 67.1692C98.596 63.4438 100.596 61.033 105.4 55.9283C107.218 53.9961 108.727 52.3195 109.809 51.0296C110.76 49.8957 112.281 47.9396 112.281 47.8484C112.281 47.8288 112.249 47.8179 112.191 47.8126L112.191 47.8126Z" fill="#F58C1C"/>
</g>
<g filter="url(#filter13_d_984_4)">
<path d="M119.361 18.9844C111.997 18.9868 105.469 20.0074 97.9458 22.334C78.9983 28.1939 61.5979 39.4737 49.0669 54.0204C35.9208 69.2812 28.4837 87.3066 27.4023 106.525C27.0827 112.204 27.5414 114.832 29.131 116.421C29.5367 116.827 29.9009 117.057 30.9337 117.562C31.9549 118.06 32.2663 118.254 32.402 118.484C32.6158 118.847 32.5648 119.331 32.2201 120.209C31.2812 122.599 26.9691 128.843 16.4263 143.079C11.8656 149.237 10.6993 150.708 8.92565 152.544C7.99382 153.508 6.92258 154.648 6.54592 155.078C5.59161 156.168 4.67042 157.6 4.30762 158.554C4.0152 159.323 4.00158 159.408 4.00004 160.642C3.99865 161.742 4.02933 162.017 4.2066 162.53C4.75222 164.107 5.9865 165.24 8.18256 166.178C9.22014 166.621 10.1883 166.924 12.9645 167.675C17.6147 168.933 19.4295 169.786 20.986 171.44C22.2828 172.819 22.8397 174.386 22.8314 176.642C22.8219 179.288 22.1277 181.114 19.7198 184.827C17.803 187.784 17.2862 188.98 17.2862 190.458C17.2862 192.486 18.6044 194.379 21.5585 196.596C22.1174 197.015 22.9879 197.617 23.4937 197.934C23.9995 198.251 24.5907 198.635 24.807 198.789L25.1999 199.07L24.4366 199.465C22.3886 200.525 20.8615 202.301 20.2159 204.373C19.9167 205.333 19.9161 206.944 20.2137 207.989C20.8283 210.149 21.7533 211.392 24.7891 214.123C27.2979 216.38 28.0448 217.221 28.7381 218.568C29.6482 220.337 29.6597 221.895 28.792 226.161C28.0711 229.705 27.9528 230.505 27.8895 232.323C27.7891 235.206 28.2991 237.255 29.4902 238.773C31.1541 240.894 34.6975 242.347 40.0913 243.12C43.4385 243.599 46.311 243.783 52.5063 243.91C60.6736 244.078 64.5744 244.184 65.8845 244.278C70.2338 244.59 72.8125 245.14 74.5234 246.119C79.4401 248.932 84.6066 256.054 88.0812 264.807C88.5764 266.054 89.1402 267.66 89.2867 268.244C89.374 268.592 89.422 268.638 89.8637 268.798C90.3373 268.971 90.346 268.979 90.3195 269.315V269.317C90.2999 269.565 90.3266 269.658 90.4227 269.658C90.5861 269.658 90.6887 269.412 90.6181 269.189C90.589 269.098 90.6249 268.906 90.6966 268.765C90.7967 268.567 90.8405 267.832 90.8875 265.611C90.9701 261.705 91.077 259.695 91.4577 254.76C92.015 247.537 92.0533 246.81 92.1088 242.713C92.1748 237.838 92.0297 234.486 91.5363 229.564C89.8876 213.12 86.507 202.974 79.6578 193.9C77.4696 191.001 75.6734 188.985 70.7091 183.862C64.6609 177.621 62.5169 175.197 59.7263 171.447C53.1409 162.596 47.9315 151.028 45.3851 139.601C43.3602 130.514 42.8877 120.779 44.0089 111.307C46.0193 94.3214 53.0486 78.5861 64.4252 65.6048C65.8723 63.9536 69.4073 60.3739 71.1469 58.7978C80.3643 50.4471 91.0948 44.2873 102.714 40.6759C107.666 39.1368 113.947 37.8296 118.807 37.3286C121.042 37.0981 120.962 37.1381 122.956 35.3058C128.293 30.3998 132.885 27.1411 140.222 23.0546C142.754 21.6438 142.956 21.5485 143.226 21.6515C143.424 21.7269 143.436 21.7065 143.498 21.088C143.532 20.7342 143.546 20.4272 143.525 20.4055C143.436 20.3165 140.666 20.0934 138.484 19.9991C137.195 19.9437 134.691 19.7951 132.921 19.6714C124.139 19.0572 122.658 18.9832 119.361 18.9844H119.361Z" fill="#4C2B84"/>
</g>
<defs>
<filter id="filter0_d_984_4" x="129.6" y="86.3052" width="114.934" height="57.1606" filterUnits="userSpaceOnUse" color-interpolation-filters="sRGB">
<feFlood flood-opacity="0" result="BackgroundImageFix"/>
<feColorMatrix in="SourceAlpha" type="matrix" values="0 0 0 0 0 0 0 0 0 0 0 0 0 0 0 0 0 0 127 0" result="hardAlpha"/>
<feOffset/>
<feGaussianBlur stdDeviation="2"/>
<feComposite in2="hardAlpha" operator="out"/>
<feColorMatrix type="matrix" values="0 0 0 0 0.133333 0 0 0 0 0.698039 0 0 0 0 0.498039 0 0 0 0.4 0"/>
<feBlend mode="normal" in2="BackgroundImageFix" result="effect1_dropShadow_984_4"/>
<feBlend mode="normal" in="SourceGraphic" in2="effect1_dropShadow_984_4" result="shape"/>
</filter>
<filter id="filter1_d_984_4" x="97.4849" y="56.0854" width="152.838" height="110.161" filterUnits="userSpaceOnUse" color-interpolation-filters="sRGB">
<feFlood flood-opacity="0" result="BackgroundImageFix"/>
<feColorMatrix in="SourceAlpha" type="matrix" values="0 0 0 0 0 0 0 0 0 0 0 0 0 0 0 0 0 0 127 0" result="hardAlpha"/>
<feOffset/>
<feGaussianBlur stdDeviation="2"/>
<feComposite in2="hardAlpha" operator="out"/>
<feColorMatrix type="matrix" values="0 0 0 0 0.298039 0 0 0 0 0.168627 0 0 0 0 0.517647 0 0 0 0.4 0"/>
<feBlend mode="normal" in2="BackgroundImageFix" result="effect1_dropShadow_984_4"/>
<feBlend mode="normal" in="SourceGraphic" in2="effect1_dropShadow_984_4" result="shape"/>
</filter>
<filter id="filter2_d_984_4" x="86.3684" y="24.8799" width="147.521" height="126.291" filterUnits="userSpaceOnUse" color-interpolation-filters="sRGB">
<feFlood flood-opacity="0" result="BackgroundImageFix"/>
<feColorMatrix in="SourceAlpha" type="matrix" values="0 0 0 0 0 0 0 0 0 0 0 0 0 0 0 0 0 0 127 0" result="hardAlpha"/>
<feOffset/>
<feGaussianBlur stdDeviation="2"/>
<feComposite in2="hardAlpha" operator="out"/>
<feColorMatrix type="matrix" values="0 0 0 0 0.533333 0 0 0 0 0.160784 0 0 0 0 0.521569 0 0 0 0.4 0"/>
<feBlend mode="normal" in2="BackgroundImageFix" result="effect1_dropShadow_984_4"/>
<feBlend mode="normal" in="SourceGraphic" in2="effect1_dropShadow_984_4" result="shape"/>
</filter>
<filter id="filter3_d_984_4" x="71.687" y="0" width="125.305" height="144.991" filterUnits="userSpaceOnUse" color-interpolation-filters="sRGB">
<feFlood flood-opacity="0" result="BackgroundImageFix"/>
<feColorMatrix in="SourceAlpha" type="matrix" values="0 0 0 0 0 0 0 0 0 0 0 0 0 0 0 0 0 0 127 0" result="hardAlpha"/>
<feOffset/>
<feGaussianBlur stdDeviation="2"/>
<feComposite in2="hardAlpha" operator="out"/>
<feColorMatrix type="matrix" values="0 0 0 0 0.92549 0 0 0 0 0.109804 0 0 0 0 0.137255 0 0 0 0.4 0"/>
<feBlend mode="normal" in2="BackgroundImageFix" result="effect1_dropShadow_984_4"/>
<feBlend mode="normal" in="SourceGraphic" in2="effect1_dropShadow_984_4" result="shape"/>
</filter>
<filter id="filter4_d_984_4" x="117.355" y="282.086" width="39.7056" height="22.9136" filterUnits="userSpaceOnUse" color-interpolation-filters="sRGB">
<feFlood flood-opacity="0" result="BackgroundImageFix"/>
<feColorMatrix in="SourceAlpha" type="matrix" values="0 0 0 0 0 0 0 0 0 0 0 0 0 0 0 0 0 0 127 0" result="hardAlpha"/>
<feOffset/>
<feGaussianBlur stdDeviation="2"/>
<feComposite in2="hardAlpha" operator="out"/>
<feColorMatrix type="matrix" values="0 0 0 0 0.298039 0 0 0 0 0.168627 0 0 0 0 0.517647 0 0 0 0.4 0"/>
<feBlend mode="normal" in2="BackgroundImageFix" result="effect1_dropShadow_984_4"/>
<feBlend mode="normal" in="SourceGraphic" in2="effect1_dropShadow_984_4" result="shape"/>
</filter>
<filter id="filter5_d_984_4" x="101.292" y="264.252" width="74.5667" height="18.4644" filterUnits="userSpaceOnUse" color-interpolation-filters="sRGB">
<feFlood flood-opacity="0" result="BackgroundImageFix"/>
<feColorMatrix in="SourceAlpha" type="matrix" values="0 0 0 0 0 0 0 0 0 0 0 0 0 0 0 0 0 0 127 0" result="hardAlpha"/>
<feOffset/>
<feGaussianBlur stdDeviation="2"/>
<feComposite in2="hardAlpha" operator="out"/>
<feColorMatrix type="matrix" values="0 0 0 0 0.298039 0 0 0 0 0.168627 0 0 0 0 0.517647 0 0 0 0.4 0"/>
<feBlend mode="normal" in2="BackgroundImageFix" result="effect1_dropShadow_984_4"/>
<feBlend mode="normal" in="SourceGraphic" in2="effect1_dropShadow_984_4" result="shape"/>
</filter>
<filter id="filter6_d_984_4" x="96.3247" y="245.473" width="82.4717" height="18.7744" filterUnits="userSpaceOnUse" color-interpolation-filters="sRGB">
<feFlood flood-opacity="0" result="BackgroundImageFix"/>
<feColorMatrix in="SourceAlpha" type="matrix" values="0 0 0 0 0 0 0 0 0 0 0 0 0 0 0 0 0 0 127 0" result="hardAlpha"/>
<feOffset/>
<feGaussianBlur stdDeviation="2"/>
<feComposite in2="hardAlpha" operator="out"/>
<feColorMatrix type="matrix" values="0 0 0 0 0.298039 0 0 0 0 0.168627 0 0 0 0 0.517647 0 0 0 0.4 0"/>
<feBlend mode="normal" in2="BackgroundImageFix" result="effect1_dropShadow_984_4"/>
<feBlend mode="normal" in="SourceGraphic" in2="effect1_dropShadow_984_4" result="shape"/>
</filter>
<filter id="filter7_d_984_4" x="94.6687" y="113.985" width="137.199" height="130.925" filterUnits="userSpaceOnUse" color-interpolation-filters="sRGB">
<feFlood flood-opacity="0" result="BackgroundImageFix"/>
<feColorMatrix in="SourceAlpha" type="matrix" values="0 0 0 0 0 0 0 0 0 0 0 0 0 0 0 0 0 0 127 0" result="hardAlpha"/>
<feOffset/>
<feGaussianBlur stdDeviation="2"/>
<feComposite in2="hardAlpha" operator="out"/>
<feColorMatrix type="matrix" values="0 0 0 0 0.298039 0 0 0 0 0.168627 0 0 0 0 0.517647 0 0 0 0.4 0"/>
<feBlend mode="normal" in2="BackgroundImageFix" result="effect1_dropShadow_984_4"/>
<feBlend mode="normal" in="SourceGraphic" in2="effect1_dropShadow_984_4" result="shape"/>
</filter>
<filter id="filter8_d_984_4" x="174.087" y="95.27" width="16.511" height="16.5107" filterUnits="userSpaceOnUse" color-interpolation-filters="sRGB">
<feFlood flood-opacity="0" result="BackgroundImageFix"/>
<feColorMatrix in="SourceAlpha" type="matrix" values="0 0 0 0 0 0 0 0 0 0 0 0 0 0 0 0 0 0 127 0" result="hardAlpha"/>
<feOffset/>
<feGaussianBlur stdDeviation="2"/>
<feComposite in2="hardAlpha" operator="out"/>
<feColorMatrix type="matrix" values="0 0 0 0 0.298039 0 0 0 0 0.168627 0 0 0 0 0.517647 0 0 0 0.4 0"/>
<feBlend mode="normal" in2="BackgroundImageFix" result="effect1_dropShadow_984_4"/>
<feBlend mode="normal" in="SourceGraphic" in2="effect1_dropShadow_984_4" result="shape"/>
</filter>
<filter id="filter9_d_984_4" x="76.2749" y="91.2988" width="16.511" height="16.5107" filterUnits="userSpaceOnUse" color-interpolation-filters="sRGB">
<feFlood flood-opacity="0" result="BackgroundImageFix"/>
<feColorMatrix in="SourceAlpha" type="matrix" values="0 0 0 0 0 0 0 0 0 0 0 0 0 0 0 0 0 0 127 0" result="hardAlpha"/>
<feOffset/>
<feGaussianBlur stdDeviation="2"/>
<feComposite in2="hardAlpha" operator="out"/>
<feColorMatrix type="matrix" values="0 0 0 0 0.298039 0 0 0 0 0.168627 0 0 0 0 0.517647 0 0 0 0.4 0"/>
<feBlend mode="normal" in2="BackgroundImageFix" result="effect1_dropShadow_984_4"/>
<feBlend mode="normal" in="SourceGraphic" in2="effect1_dropShadow_984_4" result="shape"/>
</filter>
<filter id="filter10_d_984_4" x="141.455" y="76.2617" width="16.511" height="16.5107" filterUnits="userSpaceOnUse" color-interpolation-filters="sRGB">
<feFlood flood-opacity="0" result="BackgroundImageFix"/>
<feColorMatrix in="SourceAlpha" type="matrix" values="0 0 0 0 0 0 0 0 0 0 0 0 0 0 0 0 0 0 127 0" result="hardAlpha"/>
<feOffset/>
<feGaussianBlur stdDeviation="2"/>
<feComposite in2="hardAlpha" operator="out"/>
<feColorMatrix type="matrix" values="0 0 0 0 0.298039 0 0 0 0 0.168627 0 0 0 0 0.517647 0 0 0 0.4 0"/>
<feBlend mode="normal" in2="BackgroundImageFix" result="effect1_dropShadow_984_4"/>
<feBlend mode="normal" in="SourceGraphic" in2="effect1_dropShadow_984_4" result="shape"/>
</filter>
<filter id="filter11_d_984_4" x="107.346" y="75.1279" width="16.511" height="16.5107" filterUnits="userSpaceOnUse" color-interpolation-filters="sRGB">
<feFlood flood-opacity="0" result="BackgroundImageFix"/>
<feColorMatrix in="SourceAlpha" type="matrix" values="0 0 0 0 0 0 0 0 0 0 0 0 0 0 0 0 0 0 127 0" result="hardAlpha"/>
<feOffset/>
<feGaussianBlur stdDeviation="2"/>
<feComposite in2="hardAlpha" operator="out"/>
<feColorMatrix type="matrix" values="0 0 0 0 0.298039 0 0 0 0 0.168627 0 0 0 0 0.517647 0 0 0 0.4 0"/>
<feBlend mode="normal" in2="BackgroundImageFix" result="effect1_dropShadow_984_4"/>
<feBlend mode="normal" in="SourceGraphic" in2="effect1_dropShadow_984_4" result="shape"/>
</filter>
<filter id="filter12_d_984_4" x="55.8247" y="43.8091" width="60.4561" height="84.2764" filterUnits="userSpaceOnUse" color-interpolation-filters="sRGB">
<feFlood flood-opacity="0" result="BackgroundImageFix"/>
<feColorMatrix in="SourceAlpha" type="matrix" values="0 0 0 0 0 0 0 0 0 0 0 0 0 0 0 0 0 0 127 0" result="hardAlpha"/>
<feOffset/>
<feGaussianBlur stdDeviation="2"/>
<feComposite in2="hardAlpha" operator="out"/>
<feColorMatrix type="matrix" values="0 0 0 0 0.960784 0 0 0 0 0.54902 0 0 0 0 0.109804 0 0 0 0.4 0"/>
<feBlend mode="normal" in2="BackgroundImageFix" result="effect1_dropShadow_984_4"/>
<feBlend mode="normal" in="SourceGraphic" in2="effect1_dropShadow_984_4" result="shape"/>
</filter>
<filter id="filter13_d_984_4" x="0" y="14.9844" width="147.535" height="258.674" filterUnits="userSpaceOnUse" color-interpolation-filters="sRGB">
<feFlood flood-opacity="0" result="BackgroundImageFix"/>
<feColorMatrix in="SourceAlpha" type="matrix" values="0 0 0 0 0 0 0 0 0 0 0 0 0 0 0 0 0 0 127 0" result="hardAlpha"/>
<feOffset/>
<feGaussianBlur stdDeviation="2"/>
<feComposite in2="hardAlpha" operator="out"/>
<feColorMatrix type="matrix" values="0 0 0 0 0.298039 0 0 0 0 0.168627 0 0 0 0 0.517647 0 0 0 0.4 0"/>
<feBlend mode="normal" in2="BackgroundImageFix" result="effect1_dropShadow_984_4"/>
<feBlend mode="normal" in="SourceGraphic" in2="effect1_dropShadow_984_4" result="shape"/>
</filter>
</defs>
</svg>
