<svg width="801" height="795" viewBox="0 0 801 795" fill="none" xmlns="http://www.w3.org/2000/svg">
<path d="M309.934 40.1076C290.171 40.114 272.653 42.8458 252.465 49.0736C201.62 64.7593 154.926 94.9527 121.299 133.891C86.0213 174.74 66.0637 222.99 63.1618 274.434C62.3042 289.636 63.5352 296.669 67.8007 300.923C68.8894 302.009 69.8667 302.626 72.6384 303.976C75.3788 305.31 76.2143 305.829 76.5785 306.446C77.1522 307.417 77.0153 308.713 76.0905 311.061C73.5708 317.459 61.9993 334.174 33.7078 372.279C21.4691 388.763 18.3392 392.701 13.5797 397.615C11.0791 400.197 8.20444 403.248 7.19366 404.4C4.63278 407.315 2.16076 411.149 1.18718 413.702C0.402472 415.76 0.365929 415.989 0.361813 419.291C0.35808 422.236 0.440402 422.973 0.916115 424.345C2.38029 428.568 5.69248 431.6 11.5856 434.11C14.3699 435.297 16.9681 436.109 24.4179 438.119C36.8967 441.486 41.7667 443.767 45.9436 448.196C49.4237 451.887 50.918 456.081 50.8958 462.12C50.8703 469.202 49.0073 474.09 42.5458 484.031C37.4019 491.944 36.0152 495.147 36.0152 499.102C36.0152 504.53 39.5527 509.599 47.4799 515.532C48.9797 516.655 51.3159 518.266 52.6731 519.114C54.0303 519.962 55.6169 520.992 56.1974 521.403L57.2517 522.155L55.2034 523.212C49.7075 526.05 45.6095 530.804 43.8772 536.349C43.0742 538.92 43.0726 543.232 43.8712 546.03C45.5203 551.81 48.0027 555.137 56.1492 562.448C62.8816 568.49 64.8859 570.74 66.7464 574.347C69.1886 579.081 69.2197 583.251 66.8911 594.671C64.9565 604.158 64.6392 606.3 64.4692 611.167C64.1997 618.882 65.5684 624.368 68.7647 628.432C73.2298 634.108 82.7384 637.997 97.2127 640.066C106.195 641.349 113.903 641.842 130.528 642.181C152.445 642.63 162.913 642.916 166.429 643.167C178.1 644.002 185.02 645.474 189.611 648.095C202.805 655.625 216.67 674.687 225.994 698.117C227.322 701.456 228.836 705.755 229.229 707.318C229.463 708.248 229.592 708.372 230.777 708.802C232.048 709.263 232.071 709.286 232 710.184V710.19C231.947 710.854 232.019 711.103 232.277 711.103C232.716 711.103 232.991 710.443 232.801 709.848C232.723 709.602 232.82 709.091 233.012 708.712C233.281 708.183 233.398 706.216 233.524 700.269C233.746 689.814 234.033 684.433 235.055 671.225C236.55 651.889 236.653 649.944 236.802 638.978C236.979 625.929 236.589 616.955 235.265 603.781C230.841 559.763 221.769 532.604 203.389 508.315C197.517 500.555 192.697 495.16 179.376 481.447C163.145 464.74 157.392 458.253 149.903 448.215C132.231 424.524 118.252 393.558 111.419 362.971C105.985 338.648 104.717 312.589 107.726 287.234C113.121 241.767 131.984 199.648 162.513 164.9C166.396 160.48 175.882 150.898 180.55 146.679C205.285 124.326 234.081 107.838 265.262 98.1708C278.55 94.0509 295.404 90.5518 308.446 89.2107C314.444 88.5938 314.23 88.7009 319.579 83.7962C333.901 70.6639 346.224 61.9411 365.914 51.0026C372.709 47.2261 373.25 46.9712 373.975 47.2468C374.506 47.4485 374.537 47.3941 374.704 45.7384C374.797 44.7914 374.834 43.9697 374.776 43.9115C374.537 43.6734 367.104 43.0761 361.251 42.8238C357.79 42.6753 351.072 42.2777 346.322 41.9464C322.754 40.3024 318.779 40.1043 309.934 40.1076H309.934ZM290.685 117.275C289.594 117.175 284.995 117.884 281.299 118.759C271.58 121.061 259.892 126.418 248.971 133.572C232.272 144.513 222.276 154.945 211.402 172.778C207.128 179.788 204.546 182.647 198.805 186.714C187.927 194.42 181.168 200.05 173.827 207.518C169.179 212.247 166.229 215.685 163.17 219.946C156.55 229.164 152.582 238.065 150.729 247.854C150.204 250.627 150.149 251.587 150.163 257.577C150.177 263.732 150.224 264.469 150.831 267.565C152.197 274.525 154.34 280.612 157.796 287.36C161.017 293.65 164.469 298.997 170.742 307.419C172.507 309.789 174.841 313.042 175.93 314.649L177.906 317.569V319.348C177.906 320.325 177.977 321.19 178.068 321.283C178.159 321.368 178.244 321.445 178.255 321.44C178.266 321.434 179.15 321.176 180.219 320.862L182.165 320.291L183.225 317.719C183.869 316.163 184.534 313.94 184.912 312.083C185.824 307.605 187.156 303.094 190.871 291.885C196.57 274.688 196.891 272.392 194.329 267.174C192.501 263.451 192.177 261.961 192.039 256.591C191.818 247.98 193.175 243.51 197.275 239.362C199.932 236.674 202.656 235.053 210.101 231.736C212.405 230.71 214.61 229.569 214.999 229.2C215.898 228.349 216.127 227.898 218.83 221.598C225.78 205.404 237.984 182.991 247.429 169.088C254.203 159.116 259.57 152.663 272.461 138.999C277.341 133.827 281.39 129.339 284.293 125.886C286.846 122.851 290.926 117.615 290.926 117.371C290.926 117.318 290.841 117.289 290.685 117.275L290.685 117.275ZM299.831 201.1C296.802 201.1 293.897 202.299 291.755 204.435C289.613 206.57 288.409 209.467 288.408 212.488C288.408 213.985 288.703 215.466 289.277 216.849C289.851 218.232 290.692 219.488 291.753 220.546C292.813 221.604 294.073 222.443 295.459 223.016C296.845 223.588 298.33 223.883 299.831 223.882C301.33 223.882 302.815 223.587 304.2 223.014C305.586 222.441 306.844 221.602 307.905 220.544C308.965 219.486 309.805 218.23 310.379 216.848C310.953 215.465 311.248 213.984 311.247 212.488C311.246 209.468 310.043 206.572 307.902 204.437C305.762 202.301 302.858 201.101 299.831 201.1ZM391.38 204.135C389.88 204.135 388.394 204.429 387.008 205.002C385.622 205.574 384.363 206.413 383.302 207.471C382.241 208.53 381.4 209.786 380.826 211.168C380.252 212.551 379.957 214.033 379.957 215.529C379.958 218.55 381.162 221.447 383.304 223.583C385.446 225.718 388.351 226.918 391.38 226.917C394.407 226.916 397.311 225.716 399.452 223.581C401.592 221.445 402.796 218.549 402.796 215.529C402.797 214.033 402.502 212.552 401.928 211.17C401.355 209.788 400.514 208.532 399.454 207.474C398.394 206.416 397.135 205.576 395.75 205.003C394.364 204.431 392.879 204.136 391.38 204.135ZM216.469 244.386C214.969 244.386 213.484 244.68 212.098 245.252C210.713 245.824 209.454 246.663 208.393 247.721C207.332 248.778 206.491 250.034 205.917 251.415C205.342 252.797 205.047 254.278 205.046 255.774C205.046 257.271 205.341 258.753 205.915 260.135C206.489 261.518 207.33 262.774 208.391 263.832C209.452 264.89 210.711 265.729 212.097 266.302C213.483 266.874 214.969 267.169 216.469 267.168C219.497 267.167 222.402 265.967 224.543 263.83C226.684 261.693 227.886 258.795 227.885 255.774C227.885 252.754 226.681 249.858 224.541 247.723C222.4 245.587 219.496 244.387 216.469 244.386ZM478.929 255.017C475.9 255.016 472.995 256.216 470.853 258.351C468.711 260.487 467.507 263.384 467.506 266.405C467.506 267.901 467.801 269.383 468.375 270.766C468.949 272.148 469.79 273.404 470.851 274.463C471.911 275.521 473.171 276.36 474.557 276.932C475.943 277.505 477.428 277.799 478.929 277.799C480.428 277.799 481.913 277.504 483.298 276.931C484.684 276.358 485.942 275.518 487.003 274.46C488.063 273.402 488.903 272.146 489.477 270.764C490.05 269.382 490.345 267.901 490.345 266.405C490.344 263.385 489.141 260.489 487 258.353C484.859 256.218 481.956 255.018 478.929 255.017ZM601.101 305.112C600.957 304.969 562.061 313.809 561.808 314.042C561.56 314.27 560.933 318.928 559.158 333.633C555.838 361.131 554.218 369.86 549.765 384.352C543.254 405.541 533.726 425.797 522.444 442.428C514.121 454.696 507.254 462.79 486.712 484.536C469.987 502.241 462.074 511.514 453.595 523.351C443.588 537.32 438.654 546.811 435.769 557.628C433.398 566.517 432.487 574.027 430.991 597.08C430.673 601.993 430.363 606.054 430.316 606.101C430.157 606.247 421.388 606.953 415.785 607.272C407.801 607.728 377.883 607.643 357.305 607.104C343.807 606.751 332.11 606.641 305.114 606.629C272.504 606.61 270.181 606.642 268.099 607.056C262.964 608.084 259.943 609.399 257.502 611.678C252.728 616.132 253.52 623.03 259.647 630.421C260.747 631.748 261.186 631.911 265.051 632.44C271.395 633.309 282.539 633.797 301.656 634.045C324.133 634.335 364.539 634.032 414.803 633.191C426.543 632.996 442.008 632.762 449.173 632.668L462.204 632.5L462.078 631.864C460.824 625.249 460.067 614.758 460.288 607.105C461.132 577.956 471.047 551.728 489.604 529.565C494.185 524.093 501.352 517.187 510.792 509.139C530.862 492.029 545.467 475.966 557.802 457.446C581.549 421.789 594.544 380.153 599.859 322.678C600.51 315.639 601.244 305.254 601.1 305.112L601.101 305.112ZM436.666 657.079C426.451 657.059 401.731 657.223 355.208 657.62L270.563 658.341L268.689 659.236C262.437 662.223 258.84 666.79 258.851 671.718C258.859 674.939 259.93 677.271 262.647 679.987C264.335 681.675 265.039 682.174 267.232 683.244C269.864 684.528 272.628 685.369 275.431 685.732C277.664 686.021 272.866 686.046 365.004 685.269L449.824 684.554L451.619 683.611C455.032 681.826 457.74 678.327 458.487 674.735C458.905 672.729 458.671 668.974 458.023 667.307C455.81 661.605 450.233 658.003 442.317 657.163C441.866 657.118 440.071 657.086 436.666 657.079L436.666 657.079ZM426.635 707.348C422.875 707.374 418.519 707.512 414.677 707.762C408.892 708.138 402.209 708.169 346.695 708.135C292.332 708.096 284.909 708.134 283.275 708.465C278.9 709.354 276.315 710.994 274.479 714.036C273.171 716.204 272.174 720.903 272.172 724.943V727.095L273.901 728.513C278.491 732.274 283.622 734.505 289.318 735.201L289.324 735.195C291.449 735.456 297.793 735.397 309.56 734.997C313.632 734.859 345.053 734.563 379.391 734.342L441.823 733.939L443.673 733.068C447.176 731.414 449.661 728.261 450.474 724.432C450.923 722.307 450.915 721.107 450.435 718.783C449.113 712.339 444.495 708.995 435.031 707.624C433.557 707.41 430.393 707.321 426.632 707.347L426.635 707.348ZM315.283 755.081L315.428 758.999C315.693 766.048 317.522 771.741 321.392 777.562C323.262 780.374 328.267 785.241 331.477 787.369C337.218 791.175 343.955 793.661 351.148 794.635C354.616 795.107 360.827 795.123 364.263 794.673C373.894 793.405 382.052 789.66 388.337 783.622C391.741 780.351 393.711 777.676 395.796 773.502C397.729 769.63 398.782 766.594 399.507 762.793C399.999 760.214 400.487 756.152 400.338 755.876C400.293 755.795 387.682 755.662 372.306 755.569C356.93 755.48 337.808 755.338 329.815 755.245L315.283 755.081ZM480.195 0.0123855C479.288 0.038355 478.488 0.0997042 477.905 0.209583C466.598 2.343 459.123 11.5534 457.016 25.9479C456.765 27.6551 456.514 29.0984 456.456 29.1565C456.397 29.2149 454.857 29.7214 453.033 30.2822C430.504 37.1991 397.381 54.3819 372.728 71.9401C362.196 79.4412 352.42 87.3755 338.425 99.786C304.326 130.022 280.965 159.235 251.398 208.594C243.44 221.879 236.385 234.021 236.011 235.08C235.397 236.816 235.543 237.718 236.905 240.49C240.286 247.376 241.599 252.017 241.596 257.084C241.594 260.64 241.057 263.017 239.586 266.003C236.314 272.645 229.433 277.679 218.651 281.318L214.607 282.686L207.535 301.868C200.909 319.842 200.4 321.111 199.454 322.118C198.113 323.546 197.487 325.287 196.773 329.546C196.447 331.494 195.677 334.708 195.064 336.686C192.487 344.997 192.133 349.441 193.701 353.891C195.935 360.232 203.247 364.432 215.183 366.232C218.997 366.808 218.866 366.803 218.968 366.434C219.015 366.264 219.344 364.63 219.697 362.802C222.197 349.878 230.55 325.776 242.181 297.94C244.528 292.324 247.51 286.199 258.28 264.836C269.131 243.316 271.941 237.95 273.956 234.862C277.19 229.907 277.44 229.17 277.28 225.203C277.211 223.511 276.963 220.801 276.732 219.177C276.407 216.894 276.342 215.157 276.435 211.543C276.582 205.897 277.14 203.354 279.084 199.428C280.092 197.391 280.722 196.495 282.391 194.749C285.738 191.246 289.72 189.236 295.612 188.073C300.779 187.052 303.595 186.883 305.855 187.448C306.274 187.553 306.708 187.126 308.227 185.156C311.948 180.328 316.81 175.221 327.947 164.43C349.013 144.017 350.117 143.167 373.095 129.587C378.999 126.098 383.992 123.095 384.186 122.911C384.489 122.627 384.266 122.449 382.663 121.72C375.772 118.588 369.13 117.505 353.004 116.889C349.485 116.755 346.557 116.605 346.501 116.548C346.445 116.49 346.89 115.692 347.49 114.769C351.014 109.338 359.444 101.237 370.377 92.7813C395.887 73.0522 436.139 50.0033 453.787 45.0226C460.277 43.1908 462.655 43.5247 470.694 47.3685C478.106 50.912 481.893 51.5315 487.79 50.1785C492.651 49.0633 496.697 46.8261 500.183 43.3177C508.069 35.3808 509.809 23.3149 504.503 13.3355C501.257 7.22997 495.341 2.5798 488.457 0.710793C486.616 0.211012 482.916 -0.064959 480.195 0.0123855ZM482.061 14.0257C483.561 14.0255 485.047 14.3202 486.433 14.8929C487.819 15.4656 489.078 16.3051 490.139 17.3635C491.199 18.4218 492.041 19.6783 492.614 21.061C493.188 22.4437 493.483 23.9256 493.482 25.4221C493.481 28.4429 492.278 31.3397 490.136 33.4754C487.994 35.611 485.09 36.8106 482.061 36.8102C479.033 36.8095 476.13 35.6094 473.989 33.4739C471.848 31.3384 470.645 28.4422 470.644 25.4221C470.644 23.926 470.938 22.4444 471.512 21.0619C472.085 19.6795 472.926 18.4232 473.986 17.3649C475.046 16.3067 476.305 15.4671 477.691 14.8941C479.076 14.3212 480.561 14.0261 482.061 14.0257ZM581.122 66.5952C576.442 66.5952 575.883 66.6471 573.663 67.2443C570.309 68.1447 567.673 69.5741 565.331 71.7717C563.207 73.7645 561.634 75.9659 558.206 81.7055C554.77 87.4641 555.87 86.7806 548.779 87.4981C510.58 91.3608 478.716 98.7156 449.714 110.369C418.112 123.066 389.576 140.901 359.154 166.96C350.497 174.376 338.491 185.43 330.381 193.455C327.103 196.698 326.392 197.536 325.644 199.05C324.106 202.165 324.034 203.346 324.635 214.374C324.971 220.527 323.388 224.881 319.211 229.308C316.762 231.904 314.6 233.536 311.777 234.932C308.095 236.753 305.19 237.265 298.523 237.265H294.384L293.503 239.015C292.332 241.334 288.473 248.006 282.053 258.805C264.615 288.139 259.307 298.654 249.343 323.662C247.536 328.198 244.671 335.622 242.976 340.157C239.126 350.459 232.246 369.212 232.144 369.679C232.083 369.955 233.528 370.246 239.084 371.088C242.943 371.673 246.183 372.237 246.283 372.341C246.383 372.445 247.329 374.022 248.379 375.85C250.446 379.448 251.867 381.492 253.033 382.555C253.442 382.927 253.793 383.232 253.82 383.232C253.847 383.232 254.858 381.764 256.069 379.971C260.324 373.663 263.293 368.518 271.431 353.324C288.947 320.624 299.822 303.121 317.782 278.743C328.996 263.521 336.134 254.888 350.649 238.966C357.732 231.196 363.738 224.504 363.997 224.098C364.718 222.968 365.541 220.136 366.666 214.92C367.228 212.31 367.971 209.211 368.313 208.031C371.234 197.973 376.994 192.688 386.777 191.105C389.84 190.609 392.736 190.657 395.92 191.24C402.58 192.461 404.37 191.916 415.418 185.333C418.539 183.472 421.761 181.621 422.576 181.216C423.39 180.811 433.049 177.347 444.042 173.517C455.036 169.687 464.131 166.457 464.252 166.352C464.529 166.107 462.896 163.251 460.871 160.428C455.027 152.281 446.795 145.488 436.04 139.949L432.234 137.989L433.849 136.469C436.266 134.185 439.475 132.188 445.768 129.082C454.813 124.617 466.247 120.32 481.056 115.804C508.397 107.468 538.963 101.408 553.754 101.396L556.863 101.392L559.845 105.04C567.214 114.047 571.876 116.657 580.587 116.655C588.729 116.652 594.761 114.441 599.409 109.757C606.176 102.935 608.388 91.9344 604.932 82.2642C602.218 74.6715 596.44 69.3449 588.647 67.2567C586.348 66.6424 585.834 66.5952 581.122 66.5952ZM581.056 80.6291C582.556 80.6284 584.041 80.9224 585.427 81.4944C586.813 82.0663 588.072 82.905 589.133 83.9625C590.194 85.02 591.036 86.2757 591.61 87.6577C592.185 89.0398 592.481 90.5211 592.481 92.0172C592.481 93.5137 592.186 94.9955 591.611 96.378C591.037 97.7605 590.196 99.0167 589.135 100.075C588.074 101.133 586.814 101.972 585.428 102.544C584.042 103.116 582.556 103.41 581.056 103.409C578.027 103.409 575.123 102.208 572.982 100.072C570.841 97.9353 569.639 95.038 569.639 92.0172C569.64 88.9971 570.843 86.1009 572.984 83.9654C575.125 81.8299 578.028 80.6298 581.056 80.6291ZM624.433 150.133C623.138 150.152 621.904 150.269 620.772 150.482C616.058 151.372 611.904 153.509 608.292 156.908C606.294 158.788 605.422 160.103 604.927 161.973C604.743 162.669 604.346 163.498 604.042 163.822C603.443 164.457 601.44 165.122 598.268 165.736C593.655 166.626 591.965 166.719 580.751 166.673C568.826 166.62 559.239 166.902 552.127 167.507C522.082 170.059 487.302 179.462 454.656 193.853C442.078 199.398 425.513 208.277 420.146 212.357C418.141 213.881 417.368 215.061 416.501 217.932C412.9 229.849 410.272 234.212 405.105 236.813C402.963 237.892 400.478 238.439 396.369 238.736C381.587 239.806 380.739 240.091 373.239 246.591C364.596 254.081 346.226 273.557 333.618 288.59C320.574 304.143 300.08 334.921 285.685 360.584C274.02 381.38 265.335 400.702 262.399 412.385L261.966 414.098L266.884 418.839C269.588 421.447 271.919 423.587 272.065 423.592C272.435 423.605 275.725 420.171 277.535 417.886C279.905 414.893 283.038 410.508 288.317 402.8C294.042 394.441 295.074 393.058 301.085 385.66C312.06 372.152 317.511 366.094 327.724 356.032C343.136 340.847 356.865 328.923 377.909 312.455C393.512 300.245 407.249 291.499 427.815 280.682C444.863 271.714 450.912 268.343 452.3 267.046C452.789 266.589 453.357 265.262 454.499 261.878C457.09 254.207 459.306 250.205 462.794 246.899C466.962 242.95 471.746 241.205 478.399 241.205C483.613 241.205 488.753 242.24 491.542 243.847C492.152 244.199 493.6 245.443 494.754 246.62C496.627 248.529 496.995 248.798 498.189 249.081C501.533 249.873 508.992 248.656 521.834 245.227C524.575 244.496 526.089 243.979 526.089 243.773C526.089 242.869 524.225 234.588 523.276 231.292C520.674 222.249 517.025 215.132 511.505 208.343C506.048 201.632 504.19 199.257 502.757 197.156L501.171 194.831L510.731 192.296C540.911 184.288 550.97 182.379 568.292 181.372C573.274 181.083 591.514 181.197 597.358 181.553L599.903 181.709L603.078 186.409C604.824 188.997 606.917 191.891 607.728 192.839C610.565 196.151 613.81 198.313 617.765 199.519C619.87 200.163 620.248 200.193 625.043 200.205C629.579 200.217 630.332 200.168 632.279 199.654C639.719 197.691 644.948 193.421 648.124 186.734C652.035 178.497 651.341 168.315 646.353 160.794C644.042 157.31 640.02 153.969 636.151 152.327C632.703 150.862 628.318 150.075 624.433 150.133L624.433 150.133ZM625.158 164.159C626.658 164.159 628.143 164.454 629.528 165.027C630.914 165.6 632.173 166.44 633.233 167.498C634.293 168.556 635.134 169.812 635.707 171.195C636.281 172.577 636.575 174.059 636.575 175.555C636.574 178.575 635.371 181.471 633.23 183.607C631.089 185.742 628.186 186.942 625.158 186.943C623.658 186.944 622.173 186.65 620.787 186.078C619.401 185.506 618.141 184.667 617.081 183.61C616.02 182.552 615.178 181.297 614.603 179.914C614.029 178.532 613.733 177.051 613.733 175.555C613.732 174.058 614.027 172.576 614.601 171.193C615.175 169.81 616.017 168.553 617.078 167.495C618.139 166.437 619.398 165.597 620.785 165.025C622.171 164.452 623.657 164.158 625.158 164.159ZM610.096 231.021C608.274 231.047 606.447 231.235 605.179 231.575C597.532 233.63 591.068 239.61 585.768 249.541L584.45 252.014L583.218 252.133C582.54 252.198 579.274 252.424 575.965 252.643C553.459 254.126 531.236 258.408 509.408 265.461L504.441 267.067L504.005 268.718C500.82 280.627 495.654 287.215 487.707 289.498C486.013 289.984 485.198 290.059 481.678 290.053C477.073 290.046 474.925 289.724 469.927 288.29C467.071 287.469 466.464 287.371 464.03 287.395C461.827 287.414 460.765 287.566 458.404 288.188C450.647 290.233 438.817 296.001 424.792 304.575C419.151 308.023 404.574 317.728 397.773 322.561C387.216 330.065 373.627 340.376 364.709 347.647C357.411 353.597 349.801 360.344 348.68 361.857L348.119 362.609L349.194 362.44C351.453 362.086 358.443 360.296 365.442 358.287C378.882 354.429 381.421 354.032 403.692 352.215C413.952 351.378 419.834 350.468 427.629 348.53C437.749 346.014 443.854 343.021 447.209 338.925C447.819 338.18 448.805 336.962 449.4 336.217C452.282 332.619 455.235 331.619 466.748 330.326C473.742 329.54 477.27 328.821 481.797 327.274C491.305 324.023 499.328 319.347 506.472 312.899C512.396 307.551 517.747 300.475 521.715 292.731C523.855 288.554 525.15 285.469 527.329 279.359C529.121 274.332 529.495 273.542 530.582 272.457C532.132 270.911 534.109 270.285 543.951 268.254C557.378 265.483 561.098 265.083 574.61 264.914L585.249 264.783L587.028 267.383C592.188 274.944 597.766 279.401 604.684 281.483C606.662 282.079 607.301 282.151 610.487 282.148C613.383 282.147 614.438 282.043 616.035 281.61C623.617 279.559 629.883 273.868 633.103 266.11C635.985 259.164 635.703 251.611 632.32 245.211C628.677 238.32 622.259 233.216 614.989 231.436C613.741 231.13 611.918 230.996 610.096 231.021L610.096 231.021ZM609.594 245.046C612.621 245.047 615.525 246.247 617.666 248.383C619.807 250.518 621.01 253.414 621.01 256.435C621.011 257.931 620.716 259.412 620.143 260.795C619.57 262.177 618.729 263.433 617.669 264.492C616.609 265.55 615.35 266.39 613.964 266.963C612.579 267.535 611.094 267.831 609.594 267.831C608.094 267.831 606.608 267.536 605.222 266.964C603.836 266.391 602.577 265.552 601.516 264.493C600.455 263.435 599.614 262.178 599.041 260.796C598.467 259.413 598.172 257.931 598.173 256.435C598.174 253.414 599.377 250.517 601.519 248.381C603.661 246.246 606.565 245.046 609.594 245.046Z" fill="#181E2C"/>
</svg>
