<svg width="1829" height="2527" viewBox="0 0 1829 2527" fill="none" xmlns="http://www.w3.org/2000/svg">
<g filter="url(#filter0_f_833_348)">
<path d="M-130.781 303.314C-183.572 290.071 -234.678 330.111 -234.678 384.538L-234.678 2141.91C-234.678 2218.04 -140.833 2255.38 -86.8776 2201.67C380.231 1736.62 763.415 1530.16 1466.16 1341.5C1516.76 1327.92 1543.77 1271.98 1519.34 1225.64C1289.93 790.592 919.98 566.903 -130.781 303.314Z" fill="white"/>
<path d="M-149.151 376.545C-154.059 375.314 -159.178 379.029 -159.178 384.538L-233.598 384.538L-159.178 384.538L-159.178 2141.91C-159.177 2144.83 -158.454 2146.04 -157.935 2146.76C-157.144 2147.85 -155.512 2149.36 -152.862 2150.43C-150.209 2151.49 -147.648 2151.66 -145.733 2151.32C-144.225 2151.06 -142.406 2150.41 -140.146 2148.16C337.673 1672.45 733.109 1460.13 1446.58 1268.58C1449.66 1267.76 1451.57 1265.85 1452.47 1263.92C1452.9 1263 1452.96 1262.37 1452.96 1262.1L1452.96 1262.09C1452.95 1261.95 1452.95 1261.61 1452.55 1260.85C1344.49 1055.93 1204.83 901.889 965.031 765.848C721.797 627.858 374.861 507.996 -149.151 376.545Z" stroke="#FCD6CD" stroke-width="151"/>
</g>
<defs>
<filter id="filter0_f_833_348" x="-534.678" y="0.764954" width="2363.13" height="2526.22" filterUnits="userSpaceOnUse" color-interpolation-filters="sRGB">
<feFlood flood-opacity="0" result="BackgroundImageFix"/>
<feBlend mode="normal" in="SourceGraphic" in2="BackgroundImageFix" result="shape"/>
<feGaussianBlur stdDeviation="150" result="effect1_foregroundBlur_833_348"/>
</filter>
</defs>
</svg>
