<svg width="1632" height="2227" viewBox="0 0 1632 2227" fill="none" xmlns="http://www.w3.org/2000/svg">
<g filter="url(#filter0_f_833_346)">
<path d="M1809.44 153.314C1862.23 140.071 1913.34 180.111 1913.34 234.539L1913.34 1991.91C1913.34 2068.04 1819.5 2105.38 1765.54 2051.67C1298.43 1586.62 915.247 1380.16 212.502 1191.5C161.903 1177.92 134.888 1121.98 159.325 1075.64C388.733 640.592 758.683 416.903 1809.44 153.314Z" fill="white"/>
<path d="M740.03 662.381C968.063 533.015 1293.05 418.306 1784.34 292.74L1784.34 1889.76C1342.73 1467.61 953.458 1262.5 303.028 1082.47C402.226 912.747 530.666 781.157 740.03 662.381Z" stroke="#E0CDFF" stroke-width="258"/>
</g>
<defs>
<filter id="filter0_f_833_346" x="0.205811" y="0.765106" width="2063.13" height="2226.22" filterUnits="userSpaceOnUse" color-interpolation-filters="sRGB">
<feFlood flood-opacity="0" result="BackgroundImageFix"/>
<feBlend mode="normal" in="SourceGraphic" in2="BackgroundImageFix" result="shape"/>
<feGaussianBlur stdDeviation="75" result="effect1_foregroundBlur_833_346"/>
</filter>
</defs>
</svg>
