<svg width="171" height="171" viewBox="0 0 171 171" fill="none" xmlns="http://www.w3.org/2000/svg">
<g clip-path="url(#clip0_602_170)">
<path d="M151.821 50.6916C151.43 50.6972 151.038 50.7376 150.766 50.8109C149.126 51.2527 147.739 52.539 146.602 54.6751L146.319 55.2071L146.055 55.2327C145.909 55.2466 145.208 55.2953 144.498 55.3423C139.67 55.6614 134.902 56.5823 130.218 58.0993L129.153 58.4449L129.059 58.8001C128.376 61.3615 127.267 62.7787 125.562 63.2697C125.199 63.3742 125.024 63.3904 124.269 63.389C123.281 63.3876 122.82 63.3183 121.747 63.0099C121.135 62.8333 121.004 62.8122 120.482 62.8172C120.01 62.8213 119.782 62.854 119.275 62.9878C117.611 63.4278 115.073 64.6685 112.063 66.5127C110.853 67.2544 107.726 69.3417 106.267 70.3814C104.001 71.9955 101.086 74.2133 99.1724 75.7771C97.6065 77.057 95.9739 78.5082 95.7332 78.8337L95.613 78.9954L95.8437 78.9592C96.3282 78.8829 97.828 78.498 99.3297 78.0658C102.213 77.236 102.758 77.1505 107.536 76.7597C109.738 76.5797 111 76.384 112.672 75.9671C114.843 75.4259 116.153 74.7821 116.873 73.9011C117.004 73.7409 117.215 73.4788 117.343 73.3187C117.962 72.5447 118.595 72.3298 121.065 72.0516C122.566 71.8825 123.323 71.7279 124.294 71.395C126.334 70.6958 128.056 69.6901 129.588 68.303C130.859 67.1527 132.007 65.6308 132.859 63.9651C133.318 63.0667 133.596 62.403 134.063 61.0888C134.448 60.0075 134.528 59.8376 134.761 59.6042C135.094 59.2718 135.518 59.1371 137.63 58.7002C140.51 58.1043 141.309 58.0181 144.208 57.9818L146.49 57.9535L146.872 58.5129C147.979 60.1392 149.176 61.0978 150.66 61.5456C151.085 61.674 151.222 61.6893 151.905 61.6888C152.526 61.6886 152.753 61.6661 153.096 61.573C154.722 61.1318 156.067 59.9078 156.757 58.239C157.376 56.7451 157.315 55.1203 156.59 53.7438C155.808 52.2616 154.431 51.1638 152.871 50.7808C152.603 50.715 152.212 50.6861 151.821 50.6916ZM151.714 53.7084C152.363 53.7086 152.986 53.9667 153.445 54.426C153.905 54.8854 154.163 55.5083 154.163 56.1579C154.163 56.4797 154.1 56.7984 153.977 57.0958C153.854 57.3931 153.674 57.6633 153.446 57.891C153.219 58.1186 152.949 58.2992 152.651 58.4224C152.354 58.5457 152.035 58.6091 151.714 58.6092C151.392 58.6093 151.073 58.5459 150.776 58.4227C150.478 58.2995 150.208 58.1189 149.98 57.8913C149.753 57.6636 149.572 57.3934 149.449 57.096C149.326 56.7986 149.263 56.4798 149.263 56.1579C149.263 55.5082 149.522 54.8851 149.981 54.4257C150.441 53.9663 151.064 53.7083 151.714 53.7084Z" fill="#22B27F"/>
<path d="M154.897 33.2926C154.62 33.2967 154.355 33.3219 154.112 33.3677C153.101 33.5591 152.209 34.0189 151.434 34.7498C151.006 35.1542 150.818 35.4372 150.712 35.8394C150.673 35.989 150.588 36.1675 150.522 36.237C150.394 36.3737 149.964 36.5167 149.283 36.6488C148.294 36.8402 147.931 36.8603 145.525 36.8503C142.967 36.839 140.91 36.8996 139.384 37.0297C132.937 37.5786 125.475 39.6011 118.471 42.6966C115.772 43.8892 112.218 45.799 111.067 46.6767C110.637 47.0045 110.471 47.2583 110.285 47.8758C109.512 50.439 108.948 51.3775 107.84 51.9371C107.38 52.1692 106.847 52.2867 105.965 52.3507C102.794 52.5807 102.612 52.6422 101.003 54.0403C99.1482 55.6514 95.2067 59.8404 92.5017 63.074C89.7032 66.4193 85.3061 73.0395 82.2176 78.5594C79.7148 83.0325 77.8514 87.1886 77.2213 89.7015L77.1285 90.07L78.1836 91.0898C78.7637 91.6508 79.2639 92.1111 79.2953 92.1122C79.3745 92.1149 80.0804 91.3764 80.4688 90.8847C80.9773 90.2411 81.6496 89.2978 82.7822 87.6399C84.0106 85.842 84.232 85.5445 85.5216 83.9533C87.8764 81.0477 89.0458 79.7447 91.2372 77.5803C94.5438 74.3142 97.4894 71.7495 102.005 68.2072C105.352 65.5809 108.299 63.6997 112.712 61.3729C116.37 59.4441 117.668 58.719 117.965 58.44C118.07 58.3417 118.192 58.0563 118.437 57.3284C118.993 55.6784 119.469 54.8175 120.217 54.1065C121.111 53.257 122.138 52.8818 123.565 52.8818C124.684 52.8818 125.787 53.1042 126.385 53.45C126.516 53.5257 126.827 53.7934 127.074 54.0464C127.476 54.4572 127.555 54.515 127.811 54.5758C128.529 54.7462 130.129 54.4843 132.884 53.7469C133.472 53.5895 133.797 53.4783 133.797 53.4341C133.797 53.2396 133.397 51.4585 133.194 50.7495C132.635 48.8044 131.853 47.2736 130.668 45.8133C129.497 44.3698 129.099 43.8589 128.791 43.4071L128.451 42.9069L130.502 42.3617C136.977 40.6393 139.136 40.2287 142.852 40.012C143.921 39.9498 147.834 39.9743 149.088 40.0509L149.634 40.0845L150.316 41.0954C150.69 41.652 151.139 42.2745 151.313 42.4784C151.922 43.1909 152.618 43.6558 153.467 43.9152C153.918 44.0537 154 44.0603 155.028 44.0628C156.002 44.0655 156.163 44.0549 156.581 43.9444C158.177 43.5222 159.299 42.6036 159.98 41.1652C160.82 39.3935 160.671 37.2035 159.6 35.5858C159.104 34.8364 158.242 34.1178 157.411 33.7645C156.672 33.4495 155.731 33.2801 154.897 33.2926ZM155.053 36.3095C155.375 36.3096 155.693 36.373 155.991 36.4963C156.288 36.6195 156.558 36.8001 156.785 37.0277C157.013 37.2554 157.193 37.5256 157.316 37.8229C157.439 38.1203 157.503 38.439 157.502 38.7608C157.502 39.4104 157.244 40.0333 156.785 40.4927C156.326 40.952 155.703 41.2101 155.053 41.2103C154.731 41.2104 154.412 41.1472 154.115 41.0242C153.818 40.9012 153.548 40.7208 153.32 40.4933C153.092 40.2658 152.912 39.9957 152.788 39.6985C152.665 39.4012 152.602 39.0826 152.602 38.7608C152.602 38.4388 152.665 38.12 152.788 37.8225C152.911 37.525 153.092 37.2548 153.319 37.0271C153.547 36.7994 153.817 36.6189 154.115 36.4958C154.412 36.3726 154.731 36.3093 155.053 36.3095Z" fill="#4C2B84"/>
<path d="M145.605 15.3242C144.601 15.3242 144.481 15.3354 144.004 15.4638C143.285 15.6575 142.719 15.965 142.217 16.4376C141.761 16.8663 141.424 17.3398 140.688 18.5743C139.951 19.813 140.187 19.666 138.665 19.8203C130.47 20.6512 123.633 22.2331 117.41 24.7397C110.63 27.4709 104.508 31.307 97.9804 36.9122C96.1231 38.5072 93.5472 40.8849 91.8071 42.611C91.1038 43.3086 90.9513 43.4888 90.7909 43.8145C90.4609 44.4845 90.4453 44.7384 90.5744 47.1106C90.6464 48.4341 90.3067 49.3705 89.4106 50.3227C88.885 50.8812 88.4213 51.2323 87.8156 51.5325C87.0255 51.9242 86.4022 52.0344 84.9719 52.0344H84.0839L83.8947 52.4108C83.6436 52.9095 82.8155 54.3446 81.4382 56.6675C77.6968 62.977 76.5578 65.2388 74.4201 70.6179C74.0324 71.5934 73.4176 73.1903 73.0539 74.1658C72.2279 76.3817 70.7519 80.4153 70.7299 80.5159C70.7169 80.5753 71.0268 80.6378 72.2189 80.819C73.047 80.9447 73.742 81.066 73.7635 81.0885C73.785 81.1107 73.988 81.45 74.2133 81.8431C74.6567 82.617 74.9616 83.0566 75.2118 83.2853C75.2994 83.3654 75.3749 83.4311 75.3806 83.4311C75.3864 83.4311 75.6034 83.1153 75.8631 82.7294C76.7762 81.3728 77.4131 80.2661 79.1592 76.998C82.9172 69.9644 85.2506 66.1995 89.104 60.9559C91.51 57.6819 93.0414 55.8249 96.1556 52.4002C97.6755 50.7288 98.964 49.2895 99.0196 49.2022C99.1742 48.9591 99.3508 48.35 99.5922 47.2281C99.7129 46.6667 99.8721 46.0001 99.9457 45.7462C100.572 43.5829 101.808 42.4459 103.907 42.1055C104.564 41.9989 105.186 42.0091 105.869 42.1347C107.298 42.3972 107.682 42.2801 110.052 40.864C110.722 40.4638 111.413 40.0656 111.588 39.9785C111.763 39.8915 113.835 39.1464 116.194 38.3225C118.552 37.4987 120.504 36.8039 120.53 36.7814C120.589 36.7285 120.239 36.1143 119.804 35.5072C118.55 33.7547 116.784 32.2936 114.477 31.1021L113.66 30.6806L114.007 30.3536C114.525 29.8623 115.214 29.4329 116.564 28.7648C118.505 27.8044 120.958 26.88 124.135 25.9088C130.001 24.1157 136.559 22.8123 139.733 22.8098L140.4 22.8089L141.04 23.5936C142.621 25.5309 143.621 26.0923 145.49 26.0917C147.237 26.0911 148.531 25.6156 149.528 24.608C150.98 23.1407 151.455 20.7745 150.713 18.6945C150.131 17.0614 148.891 15.9157 147.219 15.4665C146.726 15.3344 146.616 15.3242 145.605 15.3242ZM145.591 18.3428C145.912 18.3427 146.231 18.4059 146.528 18.5289C146.826 18.652 147.096 18.8324 147.324 19.0598C147.551 19.2873 147.732 19.5574 147.855 19.8546C147.978 20.1519 148.042 20.4705 148.042 20.7923C148.042 21.1142 147.979 21.433 147.855 21.7303C147.732 22.0277 147.552 22.2979 147.324 22.5254C147.096 22.753 146.826 22.9335 146.529 23.0566C146.231 23.1796 145.912 23.2429 145.591 23.2428C144.941 23.2426 144.318 22.9844 143.858 22.5248C143.399 22.0653 143.141 21.4421 143.141 20.7923C143.141 20.1427 143.399 19.5198 143.859 19.0604C144.318 18.6011 144.941 18.343 145.591 18.3428Z" fill="#892985"/>
<path d="M123.951 1.00277C123.756 1.00835 123.584 1.02155 123.459 1.04519C121.033 1.50407 119.429 3.48518 118.977 6.58136C118.923 6.94856 118.87 7.259 118.857 7.2715C118.845 7.28407 118.514 7.39301 118.123 7.51363C113.289 9.00142 106.182 12.6973 100.893 16.474C98.6333 18.0875 96.5358 19.7941 93.533 22.4635C86.2171 28.9672 81.2049 35.2507 74.8611 45.8674C73.1536 48.7251 71.64 51.3368 71.5597 51.5644C71.4279 51.9379 71.4594 52.1319 71.7515 52.7282C72.4769 54.2092 72.7586 55.2075 72.758 56.2974C72.7575 57.0623 72.6423 57.5735 72.3267 58.2158C71.6246 59.6446 70.1484 60.7272 67.835 61.5101L66.9673 61.8044L65.45 65.9302C64.0284 69.7964 63.9192 70.0692 63.7163 70.2858C63.4285 70.593 63.2941 70.9676 63.141 71.8835C63.0709 72.3026 62.9058 72.994 62.7743 73.4193C62.2214 75.207 62.1454 76.1628 62.4818 77.1201C62.9612 78.484 64.53 79.3873 67.091 79.7746C67.9092 79.8984 67.8811 79.8974 67.9031 79.8179C67.9132 79.7815 67.9837 79.4299 68.0595 79.0368C68.5958 76.2569 70.388 71.0726 72.8834 65.0854C73.387 63.8774 74.0267 62.5598 76.3377 57.9648C78.6656 53.3361 79.2686 52.1817 79.7009 51.5176C80.3949 50.4518 80.4484 50.2932 80.414 49.4401C80.3993 49.0761 80.3462 48.4932 80.2965 48.1438C80.2268 47.6528 80.2129 47.2792 80.2329 46.5019C80.2643 45.2873 80.3841 44.7404 80.8011 43.896C81.0175 43.4578 81.1526 43.2651 81.5107 42.8895C82.2288 42.1361 83.0832 41.7038 84.3472 41.4535C85.4559 41.2339 86.0602 41.1976 86.5449 41.3192C86.635 41.3418 86.728 41.2499 87.0539 40.8261C87.8524 39.7877 88.8954 38.6892 91.2849 36.368C95.8047 31.9774 96.0416 31.7944 100.972 28.8736C102.238 28.1231 103.31 27.4772 103.351 27.4377C103.416 27.3764 103.369 27.3383 103.024 27.1814C101.546 26.5077 100.121 26.2748 96.6611 26.1422C95.9059 26.1135 95.2778 26.0813 95.2658 26.0689C95.2537 26.0564 95.3494 25.8848 95.4779 25.6862C96.2341 24.518 98.0427 22.7755 100.388 20.9569C105.862 16.7132 114.498 11.7555 118.284 10.6842C119.677 10.2902 120.187 10.362 121.912 11.1888C123.502 11.951 124.315 12.0842 125.58 11.7932C126.623 11.5534 127.491 11.0721 128.239 10.3175C129.931 8.61031 130.304 6.01501 129.166 3.8685C128.47 2.55523 127.2 1.555 125.723 1.15299C125.328 1.04549 124.534 0.986133 123.951 1.00277ZM124.351 4.01696C124.673 4.01692 124.991 4.0803 125.289 4.20349C125.586 4.32668 125.856 4.50725 126.084 4.73489C126.312 4.96254 126.492 5.23279 126.615 5.5302C126.738 5.82762 126.801 6.14637 126.801 6.46825C126.801 7.11801 126.543 7.7411 126.083 8.20046C125.624 8.65983 125.001 8.91785 124.351 8.91778C123.701 8.91762 123.078 8.65949 122.619 8.20015C122.16 7.74081 121.901 7.11786 121.901 6.46825C121.901 6.14645 121.964 5.82777 122.087 5.53041C122.21 5.23305 122.391 4.96284 122.618 4.73521C122.846 4.50757 123.116 4.32698 123.413 4.20374C123.71 4.08051 124.029 4.01704 124.351 4.01696Z" fill="#EC1C23"/>
<path d="M88.5679 163.414L88.5989 164.256C88.6558 165.773 89.0482 166.997 89.8786 168.249C90.2797 168.854 91.3536 169.901 92.0424 170.359C93.274 171.177 94.7195 171.712 96.2627 171.921C97.0069 172.023 98.3394 172.027 99.0767 171.93C101.143 171.657 102.893 170.851 104.242 169.553C104.972 168.849 105.395 168.274 105.842 167.376C106.257 166.543 106.483 165.89 106.638 165.072C106.744 164.518 106.849 163.644 106.817 163.585C106.807 163.567 104.101 163.539 100.802 163.519C97.5034 163.499 93.4007 163.469 91.6856 163.449L88.5679 163.414Z" fill="#4C2B84"/>
<path d="M112.459 153.147C111.652 153.152 110.718 153.182 109.893 153.236C108.652 153.317 107.218 153.323 95.3075 153.316C83.6435 153.307 82.051 153.316 81.7004 153.387C80.7618 153.578 80.2071 153.931 79.8132 154.585C79.5325 155.051 79.3187 156.062 79.3181 156.931V157.394L79.6891 157.699C80.6739 158.508 81.7749 158.988 82.9968 159.138L82.9981 159.136C83.4541 159.192 84.8152 159.18 87.34 159.094C88.2136 159.064 94.9552 159 102.322 158.953L115.718 158.866L116.114 158.679C116.866 158.323 117.399 157.645 117.574 156.821C117.67 156.364 117.668 156.106 117.565 155.606C117.282 154.22 116.291 153.501 114.26 153.206C113.944 153.16 113.265 153.141 112.458 153.146L112.459 153.147Z" fill="#4C2B84"/>
<path d="M114.611 142.334C112.42 142.33 107.116 142.365 97.134 142.45L78.973 142.605L78.571 142.798C77.2296 143.44 76.4578 144.423 76.4602 145.483C76.4617 146.176 76.6917 146.677 77.2745 147.261C77.6368 147.624 77.7877 147.732 78.2582 147.962C78.8231 148.238 79.4161 148.419 80.0174 148.497C80.4966 148.559 79.4672 148.564 99.2358 148.397L117.434 148.244L117.819 148.041C118.552 147.657 119.133 146.904 119.293 146.132C119.383 145.7 119.332 144.893 119.194 144.534C118.719 143.307 117.522 142.533 115.824 142.352C115.727 142.342 115.342 142.335 114.611 142.334L114.611 142.334Z" fill="#4C2B84"/>
<path d="M149.891 66.6278C149.86 66.5971 141.515 68.4986 141.461 68.5486C141.408 68.5976 141.273 69.5995 140.892 72.7625C140.18 78.6771 139.833 80.5549 138.877 83.672C137.48 88.2296 135.436 92.5866 133.015 96.1637C131.229 98.8026 129.756 100.543 125.349 105.221C121.76 109.029 120.063 111.024 118.243 113.57C116.096 116.574 115.038 118.616 114.419 120.943C113.91 122.855 113.714 124.47 113.394 129.429C113.325 130.485 113.259 131.359 113.249 131.369C113.215 131.4 111.333 131.552 110.131 131.621C108.418 131.719 101.999 131.701 97.5838 131.585C94.6878 131.509 92.1781 131.485 86.386 131.483C79.3893 131.478 78.8909 131.485 78.4443 131.574C77.3425 131.796 76.6945 132.078 76.1707 132.568C75.1464 133.526 75.3163 135.01 76.6308 136.6C76.8669 136.885 76.9612 136.92 77.7903 137.034C79.1514 137.221 81.5426 137.326 85.6441 137.379C90.4666 137.442 99.136 137.377 109.92 137.196C112.439 137.154 115.757 137.103 117.295 137.083L120.09 137.047L120.063 136.91C119.794 135.487 119.632 133.231 119.679 131.585C119.86 125.315 121.988 119.674 125.969 114.906C126.952 113.729 128.49 112.244 130.515 110.513C134.821 106.833 137.955 103.378 140.601 99.3939C145.697 91.7244 148.485 82.7688 149.625 70.4062C149.765 68.8922 149.922 66.6584 149.891 66.6279L149.891 66.6278Z" fill="#4C2B84"/>
<path d="M123.679 55.853C123.029 55.8529 122.406 56.1108 121.946 56.5702C121.486 57.0295 121.228 57.6527 121.228 58.3025C121.228 58.6243 121.291 58.9431 121.414 59.2404C121.537 59.5378 121.718 59.808 121.946 60.0356C122.173 60.2632 122.443 60.4437 122.741 60.5669C123.038 60.69 123.357 60.7533 123.679 60.7532C124 60.7532 124.319 60.6897 124.616 60.5665C124.913 60.4433 125.184 60.2627 125.411 60.0352C125.638 59.8076 125.819 59.5374 125.942 59.2401C126.065 58.9428 126.128 58.6242 126.128 58.3025C126.128 57.6529 125.87 57.03 125.411 56.5706C124.951 56.1113 124.328 55.8532 123.679 55.853Z" fill="#4C2B84"/>
<path d="M67.3668 53.5664C67.045 53.5663 66.7264 53.6296 66.4291 53.7527C66.1318 53.8757 65.8617 54.0561 65.6341 54.2836C65.4065 54.511 65.226 54.7811 65.1028 55.0783C64.9796 55.3755 64.9161 55.6941 64.916 56.0159C64.9159 56.3377 64.9793 56.6565 65.1024 56.9538C65.2255 57.2512 65.406 57.5214 65.6336 57.749C65.8612 57.9766 66.1314 58.1571 66.4288 58.2803C66.7262 58.4034 67.0449 58.4667 67.3668 58.4666C68.0166 58.4665 68.6397 58.2082 69.0991 57.7486C69.5584 57.289 69.8164 56.6657 69.8162 56.0159C69.8161 55.3663 69.558 54.7434 69.0986 54.284C68.6393 53.8247 68.0164 53.5666 67.3668 53.5664Z" fill="#4C2B84"/>
<path d="M104.895 44.9082C104.573 44.9081 104.254 44.9715 103.957 45.0946C103.659 45.2177 103.389 45.3982 103.162 45.6258C102.934 45.8534 102.753 46.1236 102.63 46.421C102.507 46.7184 102.444 47.0371 102.444 47.359C102.444 48.0088 102.702 48.6319 103.162 49.0913C103.622 49.5506 104.245 49.8086 104.895 49.8084C105.544 49.8083 106.167 49.5502 106.627 49.0908C107.086 48.6315 107.344 48.0086 107.344 47.359C107.344 47.0372 107.281 46.7186 107.158 46.4213C107.035 46.124 106.854 45.8539 106.627 45.6263C106.4 45.3987 106.13 45.2182 105.832 45.095C105.535 44.9718 105.216 44.9083 104.895 44.9082Z" fill="#4C2B84"/>
<path d="M85.2524 44.2559C84.6026 44.2557 83.9793 44.5137 83.5197 44.973C83.0601 45.4324 82.8018 46.0555 82.8016 46.7053C82.8016 47.0272 82.8649 47.3459 82.988 47.6433C83.1111 47.9407 83.2917 48.2109 83.5193 48.4384C83.7468 48.666 84.0171 48.8466 84.3144 48.9697C84.6118 49.0928 84.9305 49.1562 85.2524 49.1561C85.5742 49.156 85.8927 49.0925 86.19 48.9693C86.4872 48.8461 86.7572 48.6656 86.9847 48.438C87.2122 48.2104 87.3926 47.9403 87.5156 47.643C87.6387 47.3457 87.702 47.0271 87.7019 46.7053C87.7017 46.0557 87.4436 45.4328 86.9842 44.9735C86.5249 44.5141 85.902 44.256 85.2524 44.2559Z" fill="#4C2B84"/>
<path d="M83.2902 26.2251C83.056 26.2038 82.0692 26.3562 81.2763 26.5444C79.191 27.0395 76.6833 28.1918 74.3403 29.7307C70.7575 32.0839 68.6127 34.3277 66.2796 38.1636C65.3626 39.6713 64.8087 40.2863 63.5768 41.1611C61.2428 42.8186 59.7928 44.0296 58.2177 45.6361C57.2205 46.6532 56.5876 47.3926 55.9311 48.3092C54.5109 50.2919 53.6594 52.2065 53.2619 54.312C53.1493 54.9085 53.1374 55.1149 53.1404 56.4034C53.1435 57.7273 53.1536 57.8857 53.2839 58.5517C53.5768 60.0489 54.0368 61.3581 54.7781 62.8095C55.4692 64.1624 56.21 65.3126 57.5559 67.1242C57.9345 67.6338 58.4354 68.3335 58.6688 68.6792L59.0928 69.3074V69.69C59.0928 69.9001 59.1082 70.0862 59.1277 70.1062C59.1472 70.1245 59.1654 70.1409 59.1678 70.1399C59.1702 70.1386 59.3598 70.0831 59.5892 70.0157L60.0067 69.8929L60.2342 69.3396C60.3723 69.0048 60.515 68.5266 60.5961 68.1272C60.7916 67.164 61.0774 66.1937 61.8745 63.7828C63.0973 60.0838 63.1662 59.5899 62.6164 58.4676C62.2242 57.6669 62.1548 57.3464 62.1252 56.1914C62.0778 54.3391 62.369 53.3776 63.2485 52.4855C63.8187 51.9072 64.4032 51.5586 66.0004 50.8452C66.4948 50.6244 66.9679 50.379 67.0513 50.2997C67.2442 50.1166 67.2935 50.0196 67.8734 48.6646C69.3644 45.1812 71.9829 40.3604 74.0094 37.3699C75.4629 35.225 76.6142 33.8369 79.3801 30.8978C80.4271 29.7853 81.2958 28.8201 81.9188 28.0774C82.4664 27.4245 83.3419 26.2983 83.3419 26.2458C83.3419 26.2345 83.3237 26.2282 83.2902 26.2251L83.2902 26.2251Z" fill="#F58C1C"/>
<path d="M87.4201 9.62696C83.18 9.62836 79.4213 10.2159 75.09 11.5555C64.1809 14.9294 54.1624 21.4238 46.9476 29.7992C39.3787 38.5857 35.0967 48.964 34.4741 60.0292C34.2901 63.2991 34.5542 64.8118 35.4694 65.7269C35.7029 65.9605 35.9126 66.0932 36.5073 66.3836C37.0953 66.6706 37.2745 66.7822 37.3527 66.9148C37.4757 67.1236 37.4464 67.4025 37.248 67.9075C36.7073 69.2837 34.2246 72.8789 28.1546 81.0752C25.5287 84.6208 24.8572 85.4679 23.836 86.5248C23.2995 87.0801 22.6827 87.7365 22.4658 87.9841C21.9164 88.6112 21.386 89.4358 21.1771 89.9851C21.0087 90.4277 21.0009 90.477 21 91.1872C20.9992 91.8206 21.0169 91.9792 21.119 92.2743C21.4331 93.1826 22.1437 93.8348 23.4081 94.3747C24.0055 94.6299 24.563 94.8045 26.1614 95.2369C28.8388 95.9612 29.8836 96.4519 30.7798 97.4046C31.5265 98.1983 31.8471 99.1005 31.8423 100.4C31.8369 101.923 31.4371 102.974 30.0508 105.112C28.9472 106.814 28.6496 107.503 28.6496 108.354C28.6496 109.522 29.4086 110.612 31.1094 111.888C31.4312 112.13 31.9324 112.476 32.2236 112.659C32.5148 112.841 32.8553 113.062 32.9798 113.151L33.206 113.313L32.7665 113.54C31.5874 114.151 30.7081 115.173 30.3365 116.366C30.1642 116.919 30.1638 117.846 30.3352 118.448C30.689 119.691 31.2216 120.407 32.9695 121.979C34.4139 123.279 34.844 123.763 35.2432 124.539C35.7671 125.557 35.7738 126.454 35.2742 128.91C34.8591 130.951 34.791 131.412 34.7546 132.459C34.6967 134.118 34.9904 135.298 35.6762 136.172C36.6342 137.393 38.6743 138.23 41.7798 138.675C43.707 138.951 45.3609 139.057 48.9279 139.13C53.6302 139.226 55.8762 139.288 56.6305 139.342C59.1346 139.521 60.6193 139.838 61.6044 140.402C64.4352 142.021 67.4098 146.121 69.4104 151.161C69.6955 151.879 70.0201 152.804 70.1045 153.14C70.1547 153.34 70.1824 153.367 70.4367 153.459C70.7093 153.559 70.7143 153.564 70.6991 153.757V153.758C70.6878 153.901 70.7032 153.954 70.7585 153.954C70.8526 153.954 70.9117 153.812 70.871 153.684C70.8543 153.631 70.8749 153.521 70.9163 153.44C70.9739 153.326 70.9991 152.903 71.0261 151.624C71.0737 149.375 71.1352 148.218 71.3544 145.377C71.6753 141.218 71.6973 140.799 71.7293 138.441C71.7673 135.634 71.6838 133.704 71.3997 130.87C70.4504 121.402 68.504 115.56 64.5605 110.336C63.3007 108.667 62.2665 107.506 59.4083 104.557C55.926 100.963 54.6915 99.5677 53.0849 97.4085C49.2932 92.3127 46.2939 85.6521 44.8278 79.073C43.6619 73.8412 43.3899 68.2361 44.0354 62.7824C45.1929 53.0028 49.2401 43.9431 55.7903 36.469C56.6234 35.5183 58.6587 33.4573 59.6603 32.5499C64.9673 27.7418 71.1455 24.1953 77.8355 22.116C80.6866 21.2299 84.3026 20.4772 87.1008 20.1888C88.3878 20.0561 88.3419 20.0791 89.4896 19.0241C92.5624 16.1994 95.2064 14.3232 99.4309 11.9704C100.889 11.1581 101.005 11.1033 101.16 11.1626C101.274 11.206 101.281 11.1942 101.317 10.8381C101.337 10.6344 101.345 10.4577 101.332 10.4452C101.281 10.394 99.6863 10.2655 98.4304 10.2112C97.6879 10.1793 96.2466 10.0937 95.2274 10.0225C90.1708 9.66887 89.318 9.62625 87.4201 9.62696H87.4201Z" fill="#4C2B84"/>
</g>
<defs>
<clipPath id="clip0_602_170">
<rect width="171" height="171" fill="white"/>
</clipPath>
</defs>
</svg>
